<?xml version="1.0" encoding="utf-8"?>
<!-- Generator: Adobe Illustrator 19.0.0, SVG Export Plug-In . SVG Version: 6.00 Build 0)  -->
<svg version="1.1" id="Layer_1" xmlns="http://www.w3.org/2000/svg" xmlns:xlink="http://www.w3.org/1999/xlink" x="0px" y="0px"
	 viewBox="0 0 201.2 792" style="enable-background:new 0 0 201.2 792;" xml:space="preserve">
<g id="XMLID_263_">
	<path id="XMLID_264_" d="M95.4,85.1c-0.8-0.3-19.8-7.9-26.8-20.9c-6.9-12.9-7.4-16.8-8.5-26.1c-0.9-7.4,0.3-12.2,3.3-12.9
		c1.2-0.3,3,0.2,3.8,2.6c1.5,4.2,8.2,20.9,13.5,25.8c4.2,3.9,15.1,13.4,26.6,18.8l-1.9,4c-12.1-5.6-23.4-15.5-27.7-19.5
		C72.4,52,66.8,38.9,64.3,32.7c-0.1,1.2,0,2.9,0.2,4.9c1.1,9,1.5,12.4,8,24.5C78.7,73.6,96.8,80.9,97,80.9L95.4,85.1z"/>
</g>
<g id="XMLID_259_">
	<path id="XMLID_260_" d="M66.1,125.5l-0.5-3.3c0-0.3-1-7.6,5.2-16.6c6-8.7,10.7-13.5,29.8-28c16.4-12.4,17.3-37.4,17.6-45.6
		c0-0.9,0.1-1.6,0.1-2.1c0.2-2.7,1-4.5,2.3-5.5c0.8-0.6,1.5-0.8,2.1-0.8c0.9-0.2,2.8-0.3,4.7,1.3c2,1.8,2.2,6.2,2.2,8.1v15.5
		c0,20.9-7.9,34.1-14.5,41.5c-13.4,15.1-44.9,33.1-46.2,33.8L66.1,125.5z M123.2,28.1c-0.1,0.3-0.4,0.9-0.5,2.2
		c0,0.4-0.1,1.1-0.1,1.9c-0.3,8.7-1.2,35.3-19.3,49c-18.6,14.1-23.1,18.7-28.8,26.9c-2.6,3.8-3.7,7.3-4.2,9.7
		c8.7-5.2,31.1-19.2,41.5-30.8c8.9-10,13.4-23,13.4-38.6V33c0-1.9-0.4-4.2-0.8-4.8c-0.4-0.3-0.7-0.3-0.8-0.2L123.2,28.1z"/>
</g>
<g id="XMLID_257_">
	<path id="XMLID_258_" d="M132.8,118.3l-4.4-0.2c0.2-5.9-12-18.1-19.7-24.3l2.8-3.5C113.6,92.2,133.2,108.2,132.8,118.3z"/>
</g>
<g id="XMLID_255_">
	<path id="XMLID_256_" d="M90.6,142.4c-6.9-5.4-23.9-16.6-24.1-16.7L69,122c0.7,0.5,17.4,11.4,24.4,16.9L90.6,142.4z"/>
</g>
<g id="XMLID_253_">
	<path id="XMLID_254_" d="M100.7,132.9c-7.7-7.1-24.3-14.4-24.4-14.5l1.8-4.1c0.7,0.3,17.4,7.7,25.7,15.3L100.7,132.9z"/>
</g>
<g id="XMLID_251_">
	<path id="XMLID_252_" d="M77.7,183.3l-3.2-3.1c9.6-10.1,35-37.9,42.8-46.6c8.9-10,11-17.8,11-17.8l0.4-0.8
		c4.4-5.9,3.5-15.9,2.1-19.8c-0.9-2.4-8.2-8.6-13.1-12.2l2.6-3.6c2.2,1.6,13,9.8,14.7,14.3c1.5,4.2,3,15.9-2.5,23.6
		c-0.6,1.9-3.3,9.7-11.9,19.3C112.7,145.4,87.2,173.2,77.7,183.3z"/>
</g>
<g id="XMLID_249_">
	<path id="XMLID_250_" d="M70.8,188.5c-0.6,0-1-0.2-1.2-0.3c-0.7-0.3-2.2-1.2-1.6-6.7l0.2-3.2c0.6-4.3,3.2-18.7,12.1-28.2
		c11.3-12.1,41.3-46.1,41.6-46.4l3.3,2.9c-0.3,0.3-30.3,34.4-41.7,46.5c-6.4,6.8-9.8,17.7-10.9,25.6l-0.2,3.2c0,0,0,0.1,0,0.1
		c1.2-1,2.2-1.9,2.2-1.9l2.9,3.4c0,0-2.9,2.5-4.7,4.2C72.1,188.3,71.3,188.5,70.8,188.5z"/>
</g>
<g id="XMLID_247_">
	<path id="XMLID_248_" d="M128.7,194.5c-0.9,0-1.7-0.4-2.5-1c-2-1.9-1-4.6-0.1-7c0.5-1.2,0.9-2.5,1.1-3.8c0.3-2-2.1-6.5-3.8-9
		l-0.3-0.6c-0.8-1.4-10.6-12.3-19.7-22l3.3-3c16.4,17.6,19.7,21.9,20.5,23.2c1,1.5,5.1,7.8,4.4,12.1c-0.1,1-0.4,1.9-0.7,2.8
		c1.8-3.1,4.1-8.4,3.7-14.6c-0.6-8.4-15.3-25.2-20.9-31l3.2-3.1c2.2,2.2,21.4,22.3,22.2,33.8c0.7,11-5.6,19.3-6.7,20.7
		c-0.4,0.7-1.5,2.2-3.1,2.4C129.1,194.4,128.9,194.5,128.7,194.5z"/>
</g>
<g id="XMLID_245_">
	<path id="XMLID_246_" d="M99.6,213.6c-19.8-13.8-24-33-24.2-33.8l4.4-0.9c0,0.2,4,18.3,22.4,31.1L99.6,213.6z"/>
</g>
<g id="XMLID_243_">
	<path id="XMLID_244_" d="M93.6,220.4c-17.5-10.1-25.4-33.8-25.7-34.8l4.2-1.4c0.1,0.2,7.6,23.1,23.7,32.3L93.6,220.4z"/>
</g>
<g id="XMLID_241_">
	<path id="XMLID_242_" d="M81.8,247.1c-0.4,0-0.8-0.1-1.2-0.2c-1.8-0.7-2.6-2.8-2.8-3.4l-0.1-0.4l0-0.4c0-0.4,0.9-10.9,8.5-19.7
		c7.3-8.4,38.5-33.6,39.8-34.7l2.8,3.5c-0.3,0.3-32.2,26-39.2,34.1c-5.4,6.2-6.9,13.5-7.3,16.1c1.2-1.1,3.2-3.2,4.9-5
		c3-3.1,6.4-6.7,9-9c5-4.5,35.1-31.2,35.1-31.2l0.1-0.1c0.3-0.4,1.8-3.3,1.9-15l4.5,0c-0.1,7.3-0.7,16.3-3.6,18.4
		c-1.9,1.7-30.1,26.8-35,31.1c-2.4,2.2-5.8,5.6-8.7,8.7c-4.3,4.5-5.9,6.1-6.9,6.6C82.9,246.9,82.4,247.1,81.8,247.1z"/>
</g>
<g id="XMLID_239_">
	<path id="XMLID_240_" d="M135.4,271.4c-0.3,0-0.5,0-0.8-0.1c-1.8-0.5-2.8-2.3-3.1-2.9l-0.1-0.4l-1.3-5.6c0-0.2-3.1-15-7.8-23
		c-4.7-8-15.8-16.7-15.9-16.8l2.7-3.5c0.5,0.4,11.9,9.4,17,18.1c5,8.6,8.2,23.6,8.3,24.3l1.2,5.2c0.1,0,0.2-0.1,0.3-0.1
		c0.7-0.4,1.6-0.9,1.3-7c-0.4-8.1-4.3-23.6-11.6-32.8c-6.8-8.5-12-10.5-12-10.6l1.5-4.2c0.3,0.1,6.3,2.3,14,12
		c7.4,9.3,12,25.1,12.5,35.3c0.4,7.5-1,9.8-3.6,11.2c-0.2,0.1-0.3,0.2-0.5,0.3C136.9,271.2,136.1,271.4,135.4,271.4z"/>
</g>
<g id="XMLID_237_">
	<path id="XMLID_238_" d="M106.5,287.5c-0.4-0.2-9.6-5.6-19-15.7c-9.7-10.5-9.9-26.3-9.9-26.9l4.5,0c0,0.1,0.2,14.7,8.7,24
		c8.9,9.6,17.8,14.8,17.9,14.9L106.5,287.5z"/>
</g>
<g id="XMLID_235_">
	<path id="XMLID_236_" d="M113,279.9c-0.5-0.4-12.4-9-20.1-20.3c-8.2-12-3.4-24.6-3.2-25.1l4.1,1.6c-0.2,0.4-4.1,11,2.7,21
		c7.3,10.7,18.9,19.1,19,19.2L113,279.9z"/>
</g>
<g id="XMLID_233_">
	<path id="XMLID_234_" d="M140,368.1c-4.3,0-9-4-13.2-8.1c-2-1.5-5.7-5.4-14.1-14.2c-17.5-18.3-14.6-37.3-12.6-49.9l0.1-0.6
		c1.9-12.8,27.7-32.9,30.7-35.2l2.7,3.5c-7.6,5.8-27.6,23-29,32.3l-0.1,0.6c-1.9,12.4-4.5,29.4,11.5,46.1
		c10.9,11.4,13,13.4,13.5,13.8l0.1-0.1c9.5,9.3,11.3,7.5,12.5,6.3c1-1-1.5-5.7-4.2-8.8c-0.5-0.5-18.3-16.1-23.2-25.3
		c-4.5-8.4-5.2-18.1-2.4-31.6c2.4-11.7,21.7-29,22.6-29.8l3,3.3c-5.3,4.7-19.4,18.8-21.2,27.4c-2.6,12.4-2,21.2,2,28.5
		c4.5,8.5,22.3,24.1,22.4,24.2c1.7,1.9,8.8,10.5,4.2,15.1C143.5,367.4,141.8,368.1,140,368.1z"/>
</g>
<g id="XMLID_231_">
	<path id="XMLID_232_" d="M96.9,426.1c-2.5,0-5.1-1-6.9-4c-3.3-5.8-2.2-14.4-2.1-14.8c0-0.2,0.5-10.3,11.2-24.4
		c10.4-13.8,26.9-26.3,27.5-26.8l2.7,3.6c-0.2,0.1-16.6,12.6-26.7,25.9c-9.7,12.9-10.3,22-10.3,22.1c0,0.3-1,7.7,1.6,12.2
		c1.2,2.2,3.3,2,4.7,1.5c-0.1-2-0.1-5.3,0.1-7.3c0.5-4.9,4-16.4,8.7-21c0.9-0.9,2.1-2.4,3.6-4.2c4.6-5.7,12.3-15.4,26.6-24.9
		l2.5,3.7c-13.7,9.1-21.1,18.4-25.5,24c-1.6,2-2.8,3.5-3.9,4.6c-3.8,3.7-6.9,13.9-7.4,18.3c-0.2,2.2-0.1,6.6,0,8.2l0.1,1.4l-1.2,0.7
		C100.6,425.6,98.8,426.1,96.9,426.1z"/>
</g>
<g id="XMLID_229_">
	<path id="XMLID_230_" d="M146.9,477c-0.3,0-0.6,0-0.9-0.1c-2.5-0.8-2.5-4.1-2.5-5.1c0-6.7-2.6-15.8-8.2-19.9
		c-3.6-2.6-6.2-3.4-9.7-4.5c-3.4-1.1-7.7-2.4-14.2-5.8c-13.6-7.1-19.3-17.1-19.5-17.5l3.9-2.2c0.1,0.1,5.3,9.4,17.7,15.8
		c6.2,3.2,10.1,4.4,13.5,5.5c3.7,1.1,6.8,2.1,11,5.2c6.8,5,10,15.1,10.1,23.1c0.2-0.2,0.3-0.4,0.5-0.6c0.4-1.9,2.2-11.5-2.6-21.8
		c-4.8-10.2-11.9-12.8-22.6-16.8c-1.5-0.5-3-1.1-4.6-1.7c-14.4-5.6-18.6-20.4-18.8-21l4.3-1.2c0,0.1,3.8,13.3,16.1,18.1
		c1.6,0.6,3.1,1.2,4.5,1.7c11.3,4.2,19.5,7.3,25.1,19.1c6.1,13.1,2.9,24.8,2.8,25.2l-0.3,0.7C150.9,474.9,149,477,146.9,477z"/>
</g>
<g id="XMLID_227_">
	<path id="XMLID_228_" d="M95,524.1c-1.3,0-2.5-0.6-3.3-1c-3.7-1.8-6.5-12.8-3.8-18.8c3.9-9,11.9-17.3,25.2-26.2
		c12.5-8.3,30.2-17.3,30.4-17.4l2,4c-0.2,0.1-17.7,8.9-29.9,17.1c-12.6,8.4-20.1,16.1-23.6,24.3c-1.9,4.5,0.6,12.1,1.9,13.1
		c0.2,0.1,0.8,0.4,1.2,0.4c0,0,0.8-0.4,1.9-3.8c0.3-2,2.3-13.8,16.3-22.6c14.2-8.9,34.3-21.3,34.3-21.3l2.3,3.8
		c0,0-20.1,12.4-34.3,21.3c-13.1,8.2-14.3,19.4-14.3,19.5l-0.1,0.5c-1.2,3.9-2.6,6-4.5,6.8C96.1,524.1,95.5,524.1,95,524.1z"/>
</g>
<g id="XMLID_225_">
	<path id="XMLID_226_" d="M132.2,578.1c-0.9,0-1.7-0.2-2.4-0.4c-0.4-0.1-0.8-0.2-1-0.2c-3.1,0-7.5-3.2-8.3-3.8
		c-0.5-0.5-6.7-6.7-19.4-26.2C88.1,527.9,88.8,519.9,89,519l4.4,0.6l-2.2-0.3l2.2,0.3c0,0.1-0.5,7.4,11.4,25.5
		c12.5,19,18.6,25.2,18.6,25.3c1.6,1.2,4.3,2.7,5.4,2.7c0.8,0,1.6,0.2,2.2,0.4c0.5,0.1,1.2,0.3,1.3,0.2c0.1-0.1,1-0.8,1.8-5.1
		c1.7-10,5.5-35,5.6-35.3v0c0,0,0.1-9.1-4.8-13.7c-2.2-2.1-5.2-3-8.9-2.7c-15,1.3-19.1,10.5-19.3,10.9l-4.1-1.7
		c0.2-0.5,5.2-12.1,23-13.6c5-0.4,9.2,0.9,12.4,3.9c6.4,6.1,6.2,16.9,6.2,17.3c0,0.3-3.9,25.6-5.6,35.6c-0.7,4.5-1.9,7-3.8,8.2
		C133.9,577.9,133,578.1,132.2,578.1z"/>
</g>
<g id="XMLID_221_">
	<path id="XMLID_222_" d="M127.1,562.2c-3,0-5.9-3.7-7.1-5.4l-22.9-39.3l3.8-2.2l9.8,16.9c2.3-1.5,6.2-3.7,10.9-4.7
		c2.3-0.5,4.4,0,6.1,1.3c3.7,2.8,4.3,8.6,4.4,9.3c0,0.7,0.3,14.8-1.2,20.6c-0.7,2.7-2.3,3.4-3.2,3.6
		C127.5,562.2,127.3,562.2,127.1,562.2z M113,536l10.7,18.4c0.8,1.2,2.1,2.5,2.9,3.1l0,0c1.3-5.2,1-19.1,1-19.3
		c-0.1-1.1-0.8-4.6-2.6-5.9c-0.4-0.3-1.2-0.7-2.5-0.5C118.3,532.6,114.9,534.7,113,536z"/>
</g>
<g id="XMLID_219_">
	<path id="XMLID_220_" d="M93.4,573c-2.2,0-4-0.3-5.4-1c-5.2-2.6-7.2-8.1-6-16.5c0.9-6.2,10.8-20.9,11.9-22.6l3.7,2.5
		c-2.9,4.3-10.6,16.3-11.2,20.7c-0.9,6.3,0.3,10.2,3.6,11.9c4.5,2.3,20.5-2.8,25.8-4.5l1.4,4.2C108.3,570.5,99.6,573,93.4,573z"/>
</g>
<g id="XMLID_217_">
	<path id="XMLID_218_" d="M100.4,562.2c-6.5,0-8.8-3.9-9.2-6.1c-1-4.9,6.1-12.2,8.2-14.3l3.1,3.2c-3.6,3.5-7.3,8.6-7,10.4
		c0.1,0.3,0.8,2.6,5.3,2.4l0.2,4.4C100.9,562.2,100.6,562.2,100.4,562.2z"/>
</g>
<g id="XMLID_215_">
	<path id="XMLID_216_" d="M97.8,559.4l-4.3-1.2c0.1-0.3,2.4-8.4,12.9-8.8l0.2,4.4C99.3,554.2,97.8,559.4,97.8,559.4z"/>
</g>
<g id="XMLID_213_">
	<path id="XMLID_214_" d="M108.2,601.1c-8.4,0-13.3-3.2-14.7-9.6c-1.2-5.5,1.2-19.9,1.5-21.5l4.4,0.8c-0.7,4.2-2.4,15.8-1.5,19.8
		c0.6,2.8,2.3,6,10.3,6c6.4,0,13.8-1.3,29.1-7.9c10.1-4.3,11.3-8.4,10.9-9.6l-0.3-0.5l0.1-0.5l0,0c0,0,0.1-3.3-3.4-10.2
		c-3.4-6.8-7.3-8.7-7.3-8.8l1.8-4.1c0.2,0.1,5.3,2.4,9.5,10.8c3.4,6.7,3.8,10.6,3.9,12c0.2,0.8,0.5,2.4-0.3,4.4
		c-1.5,3.9-5.9,7.4-13.1,10.5C123,599.7,115.1,601.1,108.2,601.1z"/>
</g>
<g id="XMLID_211_">
	<path id="XMLID_212_" d="M117,592.1c-1.9,0-3.5-0.5-5-1.4c-4.1-2.6-4.6-7.9-4.6-8.2l1.2-15.3l4.4,0.4l-1.2,15l0,0
		c0,0,0.5,3.1,2.6,4.5c1.5,0.9,3.7,0.9,6.5-0.1l1.5,4.2C120.4,591.7,118.6,592.1,117,592.1z"/>
</g>
<g id="XMLID_209_">
	<path id="XMLID_210_" d="M120.7,585.4c-2.6,0-5.3-0.3-7.6-1.2c-2.7-1-4.6-2.7-5.6-4.9l4.1-1.8c0.5,1.1,1.5,2,3.1,2.5
		c4.8,1.8,12.6,0.4,14.3-0.4c1.4-0.7,2.3-3.5,2.5-4.6l4.4,0.7c-0.1,0.6-1.1,6.1-5,7.9C129.1,584.5,125,585.4,120.7,585.4z"/>
</g>
<g id="XMLID_207_">
	<path id="XMLID_208_" d="M99.3,609.7c-0.2,0-15.1-2.7-17.6-19.1c-2-13.4,7.6-20.2,13-22l1.4,4.2c-0.5,0.2-11.9,4.2-10,17.1
		c2,13.2,13.4,15.3,13.9,15.4L99.3,609.7z"/>
</g>
<g id="XMLID_205_">
	<path id="XMLID_206_" d="M93.8,617l-0.8-4.4c3.1-0.6,6.1-8.8,7.2-14.1l4.4,0.9C104,602.1,101,615.6,93.8,617z"/>
</g>
<g id="XMLID_203_">
	<path id="XMLID_204_" d="M96.1,629.5c-3.1,0-6.3-1.2-9.5-3.5c-11.2-8.1-14.5-15.4-14.7-15.7c-0.3-0.7-5.8-15-3.5-27.2
		c2.3-12.3,13.6-22.7,14.1-23.1l3,3.3c-0.1,0.1-10.7,9.8-12.7,20.6c-2.1,11,3.2,24.6,3.2,24.7c0,0,0,0,0,0c0,0,3,6.5,13.1,13.8
		c3,2.1,5.8,3,8.3,2.5c3.5-0.6,5.5-3.6,5.5-3.6c0.2-0.2,7.2-9.4,9.4-15.3c0.7-1.8,1-6.3,0.9-7.7l4.4-0.2c0.1,1.1-0.1,6.5-1.2,9.5
		c-2.4,6.5-9.6,15.9-9.9,16.3c0,0-2.9,4.4-8.2,5.4C97.6,629.5,96.9,629.5,96.1,629.5z"/>
</g>
<g id="XMLID_142_">
	<path id="XMLID_202_" d="M146.7,628.2c-1.3,0-2.5-0.2-3.6-0.9c-1.7-1-2.8-2.9-3.4-5.6c-1.3-6.2-2.9-9.5-6.3-13.3
		c-1.7-1.9-6.8-7.6-11.4-9.8l1.9-4c4.8,2.3,9.6,7.3,12.8,10.8c3.9,4.4,5.9,8.4,7.4,15.3c0.2,1,0.6,2.3,1.4,2.8
		c0.9,0.5,2.8,0.2,4.5-0.3c0.2-0.1,0.5-0.2,0.6-0.3c0.6-0.9-0.3-4.5-1.2-7.6c-0.4-1.4-0.7-2.9-1.1-4.5c-1.8-7.9-11.6-18.3-11.7-18.4
		l3.2-3.1c0.4,0.5,10.7,11.4,12.8,20.5c0.4,1.6,0.7,3,1.1,4.3c1.3,4.9,2.2,8.4,0.7,11c-0.7,1.2-1.8,2-3.4,2.4
		C149.6,627.9,148.1,628.2,146.7,628.2z"/>
</g>
<g id="XMLID_140_">
	<path id="XMLID_141_" d="M126.3,646.2c-0.7,0-1.3-0.1-2-0.4c-2.3-0.9-6-3.5-11.9-16.5l-5.4-11.8l4.1-1.8l5.4,11.8
		c5.3,11.6,8.3,13.7,9.4,14.1c0.1,0.1,0.6,0.2,1.3-0.2c1.2-0.6,2.4-2.3,2.8-3.8c0.5-1.8-1-6.6-2.1-9.5l-12-29.5l4.1-1.7l12,29.5
		c0.6,1.4,3.3,8.4,2.3,12.2c-0.7,2.8-2.7,5.5-5,6.7C128.3,645.9,127.3,646.2,126.3,646.2z"/>
</g>
<g id="XMLID_137_">
	<path id="XMLID_138_" d="M123.1,661c-3,0-6.1-0.3-9.1-1.1c-9.3-2.3-13.9-8-18-13c-1.6-1.9-3-3.7-4.6-5.1c-1-0.9-1.7-0.9-2.2-0.8
		c-2.2,0.5-4.7,4.4-5.5,6.2l-0.3,0.5l-7.4,8.9c-2.4,2.9-6.2,4.4-11,4.2c-8.2-0.2-17.1-4.8-20-8.8c-4.6-6.2-3.8-19-0.2-26.9
		c5.2-11.5,24.2-27.2,25-27.9l2.8,3.4c-0.2,0.2-19,15.7-23.7,26.2c-3.3,7.3-3.4,18.2-0.2,22.5c2,2.7,9.6,6.8,16.6,7
		c3.5,0.1,5.9-0.8,7.5-2.6l7.2-8.7c0.7-1.5,3.9-7.4,8.6-8.4c1.5-0.3,3.7-0.2,6,1.8c1.9,1.7,3.4,3.6,5.1,5.7
		c3.8,4.7,7.8,9.6,15.6,11.5c11.4,2.8,24.2-0.7,28.6-7.8c4.7-7.6,5.8-9.9,6.9-24.7l4.4,0.3c-1.1,15.1-2.3,18.1-7.6,26.7
		C143.2,656.9,133.4,661,123.1,661z"/>
</g>
<g id="XMLID_135_">
	<path id="XMLID_136_" d="M69.3,646.2c-2.8,0-9.6-0.4-11.7-4.5c-2.4-4.5-1.9-7.6-0.1-12.2c1.8-4.6,14.1-16.7,16.5-19l3.1,3.2
		c-5.4,5.2-14.3,14.6-15.5,17.5c-1.6,4-1.6,5.6-0.1,8.4c0.8,1.5,5.6,2.2,8.6,2.1l0.2,4.4C70,646.2,69.7,646.2,69.3,646.2z"/>
</g>
<g id="XMLID_133_">
	<path id="XMLID_134_" d="M65.9,644.6l-3.7-2.5c0.5-0.8,13.2-19.5,18.9-24l2.8,3.5C79.6,625,69.5,639.3,65.9,644.6z"/>
</g>
<g id="XMLID_131_">
	<path id="XMLID_132_" d="M123.9,646.2c-3.5,0-8.1-1-11.3-5.6c-4.6-6.6-12.8-12.7-12.9-12.7l2.6-3.6c0.4,0.3,8.9,6.6,13.9,13.8
		c3.8,5.5,11,3.3,11.4,3.2l0,0c0,0,5.5-2.3,9.7-10.6l4,2c-5.1,10-12,12.7-12.2,12.8C128.9,645.5,126.7,646.2,123.9,646.2z"/>
</g>
<g id="XMLID_129_">
	<path id="XMLID_130_" d="M77.3,740.4c-0.7,0-1.4-0.1-2.2-0.2c-4.1-0.8-7.1-2.6-8.9-5.4c-2-3-2.5-7.1-1.5-11.7
		c1.4-6.6,6.8-13.7,9.7-15.4l2.3,3.8c-1.7,1-6.4,6.8-7.6,12.5c-0.5,2.4-0.8,5.8,0.9,8.4c1.2,1.8,3.2,2.9,6,3.5
		c4.8,0.9,6.7-3.4,9.4-10.7c0.6-1.7,1.3-3.5,2-5c2.7-6,1.8-12.2,1.4-15.6c-0.1-0.5-0.1-1-0.2-1.4c-0.2-2.1-2.9-8.5-7.2-11.5
		c-0.9-0.6-1.9-1.3-2.8-1.9c-4.2-2.7-8.9-5.8-12.1-10.7c-4-6.2-0.7-19.5-0.3-21l4.3,1.1c-1.3,4.9-2.5,14-0.3,17.4
		c2.7,4.1,6.8,6.8,10.8,9.4c1,0.7,2,1.3,2.9,1.9c5.5,3.8,8.8,11.5,9.1,14.7L93,704c0.5,3.5,1.4,10.9-1.7,18
		c-0.7,1.5-1.2,3.1-1.8,4.7C87.2,732.9,84.5,740.4,77.3,740.4z"/>
</g>
<g id="XMLID_127_">
	<path id="XMLID_128_" d="M77.2,720l-3.5-2.8c2.2-2.7,0.6-7.5-2.2-10.8c-0.8-0.9-1.7-1.5-3.1-2.3c-3-1.8-7.6-4.5-15.6-13.5
		c-12.8-14.3-2.9-35.6-2.5-36.5l4,1.9c-0.1,0.2-9,19.6,1.8,31.7c7.6,8.5,11.8,11,14.5,12.6c1.6,1,3,1.8,4.3,3.3
		C78.8,708,81.1,715.1,77.2,720z"/>
</g>
<g id="XMLID_125_">
	<path id="XMLID_126_" d="M110.4,690.5c0,0-4.3-4.6-16.7-7.7c-13.8-3.4-27.6-16.9-28.2-17.4l3.1-3.2c0.1,0.1,13.6,13.1,26.2,16.3
		c13.9,3.5,18.7,8.8,18.9,9L110.4,690.5z"/>
</g>
<g id="XMLID_123_">
	<path id="XMLID_124_" d="M123.9,679.5c-0.2-0.2-2.7-3.4-27.9-10C82.6,666,74.1,655.4,73.7,655l3.5-2.8c0.1,0.1,7.9,9.9,19.8,13
		c29.3,7.6,30.5,11.2,31,12.9L123.9,679.5z"/>
</g>
<g id="XMLID_119_">
	<path id="XMLID_120_" d="M114,720.8c-2.9,0-4.8-1.4-5.9-2.5c-2.7-2.8-3.7-7.7-2.3-11.1c2-5,10.5-10.4,17.3-12.4
		c1.7-0.5,3.1-1,4.3-1.7c3.2-1.6,5.7-4.2,10.2-10.1c4.4-5.9,0.9-21.7-0.8-27.4l4.3-1.3c0.7,2.3,6.7,22.6,0.1,31.4
		c-3.8,5-6.7,8.3-10.3,10.5c1,9.8-4.9,20.9-13.2,23.9C116.3,720.6,115.1,720.8,114,720.8z M126.5,698.3c-0.6,0.2-1.3,0.5-2.1,0.7
		c-6.3,1.9-13.1,6.6-14.4,9.8c-0.7,1.6-0.2,4.7,1.4,6.4c1.2,1.2,2.7,1.5,4.8,0.7C121.9,713.8,126.5,705.7,126.5,698.3z"/>
</g>
<g id="XMLID_117_">
	<path id="XMLID_118_" d="M105.7,737c-2.1,0-4.3-0.5-6.2-1.5c-4.6-2.3-7.7-7-8.9-13.2c-2.7-14.6,3.3-23.7,6-27
		c3-3.7,9.8-5.8,16.3-7.9c4.1-1.3,8.4-2.7,10.4-4.1c2.5-1.8,2.3-14,0.4-24.2l4.4-0.8c1,5.6,3.9,24.2-2.2,28.6
		c-2.6,1.9-7,3.3-11.7,4.8c-5.7,1.8-12.1,3.8-14.3,6.5c-2.3,2.8-7.4,10.6-5.1,23.3c1.2,6.2,4.2,8.9,6.5,10c2.9,1.5,5.8,1.1,7.5,0.3
		l1.2-0.6c5.7-2.7,17.5-8.3,23.7-18.6c6.5-11,4.2-18.7,1.6-25.1l4.1-1.7c3.3,7.9,5.3,16.9-1.9,29.1c-6.8,11.5-19.5,17.5-25.6,20.4
		l-1.1,0.5C109.3,736.6,107.5,737,105.7,737z"/>
</g>
</svg>
