<svg xmlns="http://www.w3.org/2000/svg" viewBox="0 0 128 128"><defs><style>.cls-1{fill:#f4cd40;}.cls-2{fill:#0b445c;}.cls-3{fill:#f9cc3a;}.cls-4{fill:#fff;}.cls-5{fill:none;stroke:#fff;stroke-linecap:round;stroke-miterlimit:10;stroke-width:2px;}</style></defs><title>Asset 3</title><g id="Layer_2" data-name="Layer 2"><g id="Dry_Lab" data-name="Dry Lab"><circle class="cls-1" cx="64" cy="64" r="64"/><polygon class="cls-2" points="68.53 78.23 45.63 62.8 54.99 50.17 77.71 65.17 68.53 78.23"/><polygon class="cls-2" points="68.53 53.17 45.63 37.74 54.99 25.12 77.71 40.11 68.53 53.17"/><polygon class="cls-2" points="68.53 103.28 45.63 87.85 54.99 75.23 77.71 90.22 68.53 103.28"/><path class="cls-3" d="M46.63,31.93c0-4.49,2.25-8.34,5.36-9.15l24.72-6.44v3.88c0,4.86-2.45,9-5.82,9.91L46.63,36.45Z"/><path class="cls-2" d="M75.71,17.64v2.58c0,4.34-2.18,8.19-5.07,8.94l-23,6V31.93c0-4,2-7.49,4.61-8.18l23.47-6.11m2-2.59-26,6.76c-3.54.92-6.11,5.17-6.11,10.11v5.81L71.14,31.1c3.81-1,6.57-5.56,6.57-10.88V15.06Z"/><path class="cls-4" d="M46.63,57c0-4.49,2.25-8.34,5.36-9.15L76.71,41.4v3.88c0,4.86-2.45,9-5.82,9.91L46.63,61.5Z"/><path class="cls-2" d="M75.71,42.7v2.58c0,4.34-2.18,8.19-5.07,8.94l-23,6V57c0-4,2-7.49,4.61-8.18L75.71,42.7m2-2.59-26,6.76C48.19,47.79,45.63,52,45.63,57V62.8l25.51-6.64c3.81-1,6.57-5.56,6.57-10.88V40.11Z"/><path class="cls-3" d="M46.63,82c0-4.49,2.25-8.34,5.36-9.15l24.72-6.44v3.88c0,4.86-2.45,9-5.82,9.91L46.63,86.56Z"/><path class="cls-2" d="M75.71,67.75v2.58c0,4.34-2.18,8.19-5.07,8.94l-23,6V82c0-4,2-7.49,4.61-8.18l23.47-6.11m2-2.59-26,6.76c-3.54.92-6.11,5.17-6.11,10.11v5.81l25.51-6.64c3.81-1,6.57-5.56,6.57-10.88V65.16Z"/><path class="cls-4" d="M46.63,107.1c0-4.49,2.25-8.34,5.36-9.15l24.72-6.43v3.88c0,4.86-2.45,9-5.82,9.91l-24.26,6.32Z"/><path class="cls-2" d="M75.71,92.81v2.58c0,4.34-2.18,8.19-5.07,8.94l-23,6V107.1c0-4,2-7.49,4.61-8.18l23.47-6.11m2-2.59L51.73,97c-3.54.92-6.11,5.17-6.11,10.11v5.81l25.51-6.64c3.81-1,6.57-5.56,6.57-10.88V90.22Z"/><line class="cls-5" x1="52.98" y1="76.81" x2="71.56" y2="72.06"/><line class="cls-5" x1="52.98" y1="26.81" x2="71.56" y2="22.06"/></g></g></svg>