<svg xmlns="http://www.w3.org/2000/svg" viewBox="0 0 128 128"><defs><style>.cls-1{fill:#0b445c;}.cls-2,.cls-5{fill:none;stroke-miterlimit:10;stroke-width:2px;}.cls-2{stroke:#f4cd40;}.cls-3{fill:#f4cd40;}.cls-4{fill:#fff;}.cls-5{stroke:#fff;stroke-linecap:round;}</style></defs><title>Asset 5</title><g id="Layer_2" data-name="Layer 2"><g id="Dry_Lab" data-name="Dry Lab"><circle class="cls-1" cx="64" cy="64" r="64"/><line class="cls-2" x1="100.55" y1="71.48" x2="65.22" y2="98.9"/><line class="cls-2" x1="107.39" y1="71.16" x2="67.06" y2="71.16"/><line class="cls-2" x1="93.48" y1="71.19" x2="64.22" y2="93.9"/><line class="cls-2" x1="86.03" y1="70.97" x2="64.22" y2="87.9"/><line class="cls-2" x1="78.04" y1="71.17" x2="64.22" y2="81.9"/><polygon class="cls-3" points="27.31 72.32 66.49 31.16 66.49 103.43 27.31 72.32"/><path class="cls-3" d="M65.52,33.22v68.12L27.9,72,65.52,33.22m2-4.94L24.92,72.22l42.6,33.21V28.28Z"/><polygon class="cls-4" points="67.52 105.43 67.4 102.97 106.54 72.12 67.47 31.07 67.49 28.27 109.45 72.32 108.63 72.99 67.52 105.43"/><line class="cls-5" x1="32.02" y1="70.75" x2="63.27" y2="38.75"/></g></g></svg>