<svg xmlns="http://www.w3.org/2000/svg" viewBox="0 0 128 128"><defs><style>.cls-1{fill:#46b1bc;}.cls-2{fill:#18435b;}.cls-3,.cls-7,.cls-8{fill:#fff;}.cls-4,.cls-5,.cls-6{fill:none;}.cls-4,.cls-6,.cls-7{stroke:#18435b;}.cls-4,.cls-5,.cls-6,.cls-7,.cls-8{stroke-miterlimit:10;}.cls-4,.cls-5,.cls-7,.cls-8{stroke-width:2px;}.cls-5,.cls-8{stroke:#46b1bb;stroke-linecap:round;}.cls-6{stroke-width:5px;}</style></defs><title>Asset 9</title><g id="Layer_2" data-name="Layer 2"><g id="Wet_Lab" data-name="Wet Lab"><circle class="cls-1" cx="64" cy="64" r="64"/><path class="cls-2" d="M81.54,49.07v15.7A18.82,18.82,0,0,1,62.78,83.54h0A18.82,18.82,0,0,1,44,64.77V49.07H81.54m2-2H42v17.7a20.76,20.76,0,0,0,41.53,0V47.07Z"/><path class="cls-3" d="M62.77,76.57A11.34,11.34,0,0,1,51.44,65.24V40.9a11.33,11.33,0,1,1,22.66,0V65.24A11.34,11.34,0,0,1,62.77,76.57Z"/><path class="cls-2" d="M62.78,30.57A10.34,10.34,0,0,1,73.1,40.9V65.24a10.33,10.33,0,0,1-20.66,0V40.9A10.34,10.34,0,0,1,62.78,30.57m0-2h0A12.37,12.37,0,0,0,50.44,40.9V65.24A12.37,12.37,0,0,0,62.77,77.57h0A12.37,12.37,0,0,0,75.1,65.24V40.9A12.37,12.37,0,0,0,62.78,28.57Z"/><path class="cls-4" d="M62.93,65.15"/><path class="cls-5" d="M59.12,35.43a6.79,6.79,0,0,1,4-1.32h0A6.86,6.86,0,0,1,70,40.95"/><line class="cls-6" x1="62.55" y1="84.15" x2="62.55" y2="98.04"/><path class="cls-7" d="M56.66,106.59V96.3c0-3,2.75-5.54,6.11-5.54s6.11,2.49,6.11,5.54v10.33Z"/><line class="cls-8" x1="70.08" y1="44.8" x2="70.08" y2="47.3"/></g></g></svg>