<svg xmlns="http://www.w3.org/2000/svg" viewBox="0 0 128 128"><defs><style>.cls-1,.cls-4{fill:#46b1bc;}.cls-2,.cls-5{fill:#fff;}.cls-2{stroke:#10415c;}.cls-2,.cls-4{stroke-miterlimit:10;stroke-width:2px;}.cls-3{fill:#10415c;}.cls-4{stroke:#0b445c;}</style></defs><title>Asset 8</title><g id="Layer_2" data-name="Layer 2"><g id="Wet_Lab" data-name="Wet Lab"><circle class="cls-1" cx="64" cy="64" r="64"/><rect class="cls-2" x="27" y="31.24" width="74" height="51.94" rx="5" ry="5"/><path class="cls-3" d="M80.44,96.76H47.56A1.81,1.81,0,0,1,45.75,95V92.21h36.5V95A1.81,1.81,0,0,1,80.44,96.76Z"/><rect class="cls-3" x="58.54" y="83.73" width="10.93" height="10.5"/><rect class="cls-4" x="36.29" y="44.72" width="55.43" height="24.98" rx="6.05" ry="6.05"/><path class="cls-5" d="M58.86,62.64a1.08,1.08,0,0,1-.8-.35l-4-4.35a1.08,1.08,0,0,1,0-1.46l4-4.35a1.08,1.08,0,0,1,1.6,1.46l-3.29,3.62,3.29,3.62a1.08,1.08,0,0,1-.8,1.81Z"/><path class="cls-5" d="M69.14,62.64a1.08,1.08,0,0,1-.8-1.81l3.29-3.62-3.29-3.62a1.08,1.08,0,0,1,1.6-1.46l4,4.35a1.08,1.08,0,0,1,0,1.46l-4,4.35A1.08,1.08,0,0,1,69.14,62.64Z"/><path class="cls-5" d="M61.23,66.59a1.08,1.08,0,0,1-1-1.43l5.53-16.6a1.08,1.08,0,0,1,2.05.69l-5.53,16.6A1.08,1.08,0,0,1,61.23,66.59Z"/></g></g></svg>