<svg xmlns="http://www.w3.org/2000/svg" viewBox="0 0 128 128"><defs><style>.cls-1,.cls-5{fill:#46b1bc;}.cls-2,.cls-6{fill:#fff;}.cls-2,.cls-4,.cls-5{fill-rule:evenodd;}.cls-3,.cls-4{fill:#10415c;}</style></defs><title>Asset 1</title><g id="Layer_2" data-name="Layer 2"><g id="Wet_Lab" data-name="Wet Lab"><circle class="cls-1" cx="64" cy="64" r="64"/><path class="cls-2" d="M39.34,98.85h48a8.55,8.55,0,0,0,8.52-8.53v-48a8.55,8.55,0,0,0-8.52-8.53h-48a8.55,8.55,0,0,0-8.52,8.53v48a8.55,8.55,0,0,0,8.52,8.53Z"/><path class="cls-3" d="M39.34,97.72h48a7.43,7.43,0,0,0,7.4-7.4v-48a7.43,7.43,0,0,0-7.4-7.4h-48a7.43,7.43,0,0,0-7.4,7.4v48a7.43,7.43,0,0,0,7.4,7.4Zm48,2.25h-48a9.67,9.67,0,0,1-9.65-9.65v-48a9.68,9.68,0,0,1,9.65-9.65h48A9.68,9.68,0,0,1,97,42.34v48A9.67,9.67,0,0,1,87.32,100Z"/><path class="cls-4" d="M39.34,98.85h48a8.55,8.55,0,0,0,8.52-8.53V83.64h-65v6.68a8.55,8.55,0,0,0,8.52,8.53Z"/><polygon class="cls-5" points="75.22 58.67 63.33 65.23 51.44 71.8 51.44 58.67 51.44 45.55 63.33 52.11 75.22 58.67 75.22 58.67"/><path class="cls-3" d="M75.76,59.65,63.87,66.22,52,72.78l-1.66.92V43.64l1.66.92,11.89,6.56,11.89,6.56,1.78,1-1.78,1Zm-13,4.6L72.9,58.67,62.79,53.09,52.57,47.45V69.89l10.23-5.64Z"/><path class="cls-6" d="M37.18,88.32h1.75v5.86H36.76V88.32Z"/><path class="cls-6" d="M40.58,88.32h1.75v5.86H40.17V88.32Z"/><polygon class="cls-1" points="46.38 90.12 86.63 90.12 86.63 92.37 46.38 92.37 46.38 90.12 46.38 90.12"/><polygon class="cls-6" points="46.38 90.12 66.5 90.12 66.5 92.37 46.38 92.37 46.38 90.12 46.38 90.12"/></g></g></svg>