<svg xmlns="http://www.w3.org/2000/svg" viewBox="0 0 64.74 53.25"><defs><style>.cls-1,.cls-7{fill:#fff;}.cls-2{fill:#46b1bc;}.cls-3{fill:#10415c;}.cls-4,.cls-6{fill:none;stroke-linecap:round;}.cls-4{stroke:#fff;}.cls-4,.cls-6,.cls-7{stroke-miterlimit:10;stroke-width:2px;}.cls-5{fill:#46b1bb;}.cls-6,.cls-7{stroke:#10415c;}</style></defs><title>Asset 10</title><g id="Layer_2" data-name="Layer 2"><g id="Wet_Lab" data-name="Wet Lab"><g id="_Group_" data-name="&lt;Group&gt;"><polygon id="_Path_" data-name="&lt;Path&gt;" class="cls-1" points="4.09 19.83 11.27 13.01 6.17 11.05 2.39 14.65 4.09 19.83"/><polygon id="_Path_2" data-name="&lt;Path&gt;" class="cls-1" points="6.1 17.92 3.56 10.15 1.55 12.06 4.09 19.83 6.1 17.92"/><rect id="_Path_3" data-name="&lt;Path&gt;" class="cls-1" x="11.64" y="12.86" width="9.91" height="25.89" transform="translate(-13.21 18.54) rotate(-43.56)"/><rect id="_Path_4" data-name="&lt;Path&gt;" class="cls-2" x="13.73" y="12.02" width="7.49" height="25.89" transform="translate(-12.39 18.92) rotate(-43.56)"/><path id="_Path_5" data-name="&lt;Path&gt;" class="cls-2" d="M27,43.94a1.93,1.93,0,0,0,2.73.07l4.38-4.16a1.93,1.93,0,0,0,.07-2.73l-2.27-2.39-7.18,6.83Z"/><path id="_Path_6" data-name="&lt;Path&gt;" class="cls-1" d="M29.75,44l1.16-1.1a1.93,1.93,0,0,1-2.73-.07L25.9,40.45l-1.16,1.1L27,43.94A1.93,1.93,0,0,0,29.75,44Z"/><path id="_Compound_Path_" data-name="&lt;Compound Path&gt;" class="cls-3" d="M3.59,19.53a.58.58,0,0,1,.1-.12l7.18-6.83a.58.58,0,0,1,.82,0L29.53,31.37a.58.58,0,0,1,0,.82L22.33,39a.58.58,0,0,1-.82,0L3.67,20.23A.58.58,0,0,1,3.59,19.53Zm7.66-5.7-6.33,6,17,17.92,6.33-6Z"/><path id="_Compound_Path_2" data-name="&lt;Compound Path&gt;" class="cls-3" d="M21.43,38.29a.58.58,0,0,1,.1-.12l7.18-6.83a.58.58,0,0,1,.82,0l2.81,3a.58.58,0,0,1,0,.82L25.14,42a.58.58,0,0,1-.82,0l-2.81-3A.58.58,0,0,1,21.43,38.29Zm7.66-5.7-6.33,6,.57.6,6.33-6ZM30.46,34l-6.33,6,.64.67,6.33-6Z"/><path id="_Compound_Path_3" data-name="&lt;Compound Path&gt;" class="cls-3" d="M24.25,41.25a.58.58,0,0,1,.1-.12l7.18-6.83a.58.58,0,0,1,.82,0l2.27,2.39a2.52,2.52,0,0,1-.09,3.56l-4.38,4.16a2.52,2.52,0,0,1-3.56-.09L24.32,42a.58.58,0,0,1-.07-.71Zm7.66-5.7-6.33,6,1.87,2h0a1.35,1.35,0,0,0,1.91,0l4.38-4.16a1.35,1.35,0,0,0,0-1.91Z"/><path id="_Compound_Path_4" data-name="&lt;Compound Path&gt;" class="cls-3" d="M.09,8.8a.58.58,0,0,1,.1-.12l.15-.14a.58.58,0,0,1,.61-.12l5.44,2.09a.58.58,0,0,1,.19,1L2.79,15.07a.58.58,0,0,1-1-.24L0,9.28A.58.58,0,0,1,.09,8.8Z"/><path id="_Compound_Path_5" data-name="&lt;Compound Path&gt;" class="cls-3" d="M1.9,14.34a.58.58,0,0,1,.1-.12l3.78-3.59a.58.58,0,0,1,.61-.12l5.09,2a.58.58,0,0,1,.19,1L4.49,20.25a.58.58,0,0,1-1-.24L1.84,14.83A.58.58,0,0,1,1.9,14.34Zm4.41-2.61L3.06,14.82l1.29,4,5.84-5.56Z"/><path id="_Path_7" data-name="&lt;Path&gt;" class="cls-3" d="M7.41,16.31a.58.58,0,0,1,.92-.1L26,34.78a.58.58,0,1,1-.84.8L7.48,17A.58.58,0,0,1,7.41,16.31Z"/></g><path id="_Path_8" data-name="&lt;Path&gt;" class="cls-2" d="M37.47,48h0c1.39.73,3.25.16,4.37-2L56.67,20.64c1.16-2-.54-2.87-2.7-4h0c-2.16-1.14-3.85-2-4.83,0L36.62,43.32C35.44,45.56,36.08,47.3,37.47,48Z"/><g id="_Group_2" data-name="&lt;Group&gt;"><path class="cls-1" d="M38.69,47.93a2.2,2.2,0,0,1-1-.26,2.25,2.25,0,0,1-1.18-1.52A3.88,3.88,0,0,1,37,43.52L49.51,16.86c.33-.69.67-.87.89-1a1.25,1.25,0,0,1,.41-.06,7.87,7.87,0,0,1,3,1.15,11.81,11.81,0,0,1,2.33,1.43,1.63,1.63,0,0,1,.5.74,1.55,1.55,0,0,1-.28,1.27L41.49,45.84a3.92,3.92,0,0,1-1.89,1.9A2.39,2.39,0,0,1,38.69,47.93Z"/><path class="cls-3" d="M50.8,16.85h0a8.23,8.23,0,0,1,2.52,1.05,11.12,11.12,0,0,1,2.08,1.26.72.72,0,0,1,.22.28.94.94,0,0,1-.18.49L40.62,45.34l0,0,0,0a2.9,2.9,0,0,1-1.36,1.4,1.4,1.4,0,0,1-.53.11,1.2,1.2,0,0,1-.56-.14,1.26,1.26,0,0,1-.67-.86A3,3,0,0,1,37.86,44l0,0,0,0L50.41,17.28a.94.94,0,0,1,.3-.43h.09m0-2a2.26,2.26,0,0,0-.72.11,2.57,2.57,0,0,0-1.48,1.47L36.09,43.06a4.85,4.85,0,0,0-.58,3.32,3.26,3.26,0,0,0,1.69,2.18,3.19,3.19,0,0,0,1.49.37A3.4,3.4,0,0,0,40,48.67a4.85,4.85,0,0,0,2.37-2.32L57.17,20.94a2.57,2.57,0,0,0,.37-2.05,2.61,2.61,0,0,0-.79-1.19,12.09,12.09,0,0,0-2.51-1.57l0,0a8.25,8.25,0,0,0-3.42-1.26Z"/></g><path id="_Compound_Path_6" data-name="&lt;Compound Path&gt;" class="cls-3" d="M56.54,18.6l-5.66-3,1.32-2.52,5.66,3Zm-4.07-3.47L56,17l.23-.43L52.7,14.7Z"/><g id="_Group_3" data-name="&lt;Group&gt;"><path id="_Path_9" data-name="&lt;Path&gt;" class="cls-3" d="M57.07,16.33s4.32-.76,4.38-4.73C61.52,8,63.16,7.19,64.12,7c.55-.11-7.34-2.36-10.27.52,0,0-3.44,3.61-1.4,6.38Z"/><path id="_Compound_Path_7" data-name="&lt;Compound Path&gt;" class="cls-3" d="M64.73,7.07a.61.61,0,0,1-.5.51c-1.39.28-2.15,1.67-2.19,4-.06,3.52-3.21,5-4.87,5.3l-.2,0-4.92-2.58L52,14.26a4.49,4.49,0,0,1-.12-4.84,10,10,0,0,1,1.57-2.3h0c2.9-2.85,10-1.17,10.9-.7a.87.87,0,0,1,.2.14A.6.6,0,0,1,64.73,7.07ZM52.85,13.45l4.3,2.26A6.26,6.26,0,0,0,58.92,15a3.88,3.88,0,0,0,1.94-3.37c0-2.5.83-3.82,1.69-4.5-2.16-.47-6.44-1-8.28.84C54.12,8.09,51.32,11.16,52.85,13.45Z"/></g><line class="cls-4" x1="51.21" y1="18.83" x2="39.99" y2="42.59"/><path id="_Path_10" data-name="&lt;Path&gt;" class="cls-4" d="M55.73,9a7.44,7.44,0,0,0-1.54,1.37,2.92,2.92,0,0,0-.7,1.5"/><line class="cls-4" x1="58.69" y1="7.41" x2="58.71" y2="7.4"/><path class="cls-5" d="M46.59,52.25H14.9a4.85,4.85,0,0,1-4.16-7s8-16.24,9.15-19.2A39.44,39.44,0,0,0,22,13.92l0-6.51,17.58-.08,0,6.59a39.3,39.3,0,0,0,2.07,12.16c1.23,3.38,9.15,19.19,9.15,19.19a4.85,4.85,0,0,1-4.16,7Z"/><polygon class="cls-1" points="50.58 50.45 48.57 52.34 14.12 52.34 11 50.37 11 44.12 50.58 44.12 50.58 50.45"/><path class="cls-6" d="M46.59,52.25H14.9a4.85,4.85,0,0,1-4.16-7s8-16.24,9.15-19.2A39.44,39.44,0,0,0,22,13.92l0-6.14L39.58,7.7l0,6.22a39.3,39.3,0,0,0,2.07,12.16c1.23,3.38,9.15,19.19,9.15,19.19a4.85,4.85,0,0,1-4.16,7Z"/><path class="cls-4" d="M35.32,15.87l.18,3.78a30.71,30.71,0,0,0,.63,5c.64,2.92,3.76,9.7,3.76,9.7"/><line class="cls-4" x1="42.19" y1="37.85" x2="42.95" y2="39.08"/><rect class="cls-7" x="17.59" y="1" width="26.37" height="6.58" rx="2.85" ry="2.85"/></g></g></svg>