<svg xmlns="http://www.w3.org/2000/svg" viewBox="0 0 128 128"><defs><style>.cls-1{fill:#46b1bc;}.cls-2{fill:#10415c;}.cls-3{fill:#fff;}.cls-4{fill:none;stroke:#fff;stroke-linecap:round;stroke-miterlimit:10;stroke-width:2px;}</style></defs><title>Asset 11</title><g id="Layer_2" data-name="Layer 2"><g id="Wet_Lab" data-name="Wet Lab"><circle class="cls-1" cx="64" cy="64" r="64"/><path class="cls-2" d="M85.74,89a1.4,1.4,0,0,0,1.4-1.4V37.26a1.4,1.4,0,0,0-1.4-1.4H44.14a6.25,6.25,0,0,0-6.24,6.24V92.44a6.25,6.25,0,0,0,6.24,6.24h41.6a1.4,1.4,0,1,0,0-2.8H84.43V89Zm-3.81,6.88H44.14a3.44,3.44,0,1,1,0-6.88h37.8a13.33,13.33,0,0,0-.31,3.44A13.33,13.33,0,0,0,81.93,95.88Zm3.2-8.9h-41V37.83h41Z"/><path class="cls-3" d="M82.43,96.55H44.18a3.79,3.79,0,0,1,0-7.55H82.43Z"/><line class="cls-4" x1="52.43" y1="57.28" x2="75.93" y2="57.28"/><line class="cls-4" x1="52.43" y1="62.28" x2="75.93" y2="62.28"/><line class="cls-4" x1="59.12" y1="67.28" x2="69.25" y2="67.28"/><polygon class="cls-2" points="61.83 104.5 55.33 101.5 48.88 104.5 48.88 98.68 61.83 98.68 61.83 104.5"/></g></g></svg>