<?xml version="1.0" encoding="utf-8"?>
<!-- Generator: Adobe Illustrator 19.0.0, SVG Export Plug-In . SVG Version: 6.00 Build 0)  -->
<svg version="1.1" id="Layer_1" xmlns="http://www.w3.org/2000/svg" xmlns:xlink="http://www.w3.org/1999/xlink" x="0px" y="0px"
	 viewBox="0 0 273.9 266.8" style="enable-background:new 0 0 273.9 266.8;" xml:space="preserve">
<style type="text/css">
	.st0{fill:#231F20;}
</style>
<g id="XMLID_2_">
	<path id="XMLID_144_" class="st0" d="M120.2,94.2c0-2.7-2.2-5-5-5c-2.7,0-5,2.2-5,5c0,2.7,2.2,5,5,5
		C117.9,99.2,120.2,96.9,120.2,94.2z M113.5,94.2c0-0.9,0.7-1.7,1.7-1.7s1.7,0.7,1.7,1.7s-0.7,1.7-1.7,1.7S113.5,95.1,113.5,94.2z"
		/>
	<path id="XMLID_147_" class="st0" d="M106.8,110.9c0,2.7,2.2,5,5,5c2.7,0,5-2.2,5-5s-2.2-5-5-5C109,105.9,106.8,108.1,106.8,110.9z
		 M111.8,109.2c0.9,0,1.7,0.7,1.7,1.7c0,0.9-0.7,1.7-1.7,1.7s-1.7-0.7-1.7-1.7S110.9,109.2,111.8,109.2z"/>
	<path id="XMLID_150_" class="st0" d="M149.5,93.3c0.1-0.4,0.2-0.8,0.3-1.3c0.4-1.6,0.8-3.6,2-5.6c0.4-0.6,1.5-1.6,3-1.9
		c1.5-0.2,3.1,0.3,4.6,1.7c0.9,0.8,2.3,3.9,3,5.8c0.5,1.6,2.4,4.4,6.4,3.6c6.2-1.2,13.7-6.9,15.5-11.8c0.5-1.3,2-6.2,0.6-12
		c-1.4-5.8-5.4-10.6-11.5-14c-0.6-0.3-1.1-0.6-1.7-0.9c0-0.1,0-0.1-0.1-0.2c-0.6-1.1-0.7-2.1-0.3-3c0.7-1.3,2.4-2.1,2.9-2.2
		c1.5-0.2,4,0.2,4.9,0.3c1.6,0.4,4.9,0,6.2-3.9c1.6-4.7-3-8-3.2-8.2c-0.7-0.5-1.8-0.4-2.3,0.4c-0.5,0.7-0.4,1.8,0.4,2.3
		c0,0,2.8,2.1,2,4.4c-0.6,1.9-1.9,1.8-2.4,1.7l-0.1,0c-0.4-0.1-3.7-0.7-6-0.4c-1.4,0.2-4.2,1.5-5.4,4c-0.4,0.7-0.7,1.7-0.6,2.9
		c-6.8-2.7-13.9-4-19.9-4.5c0,0,0,0,0,0c-1-0.9-1.4-1.7-1.3-2.7c0.2-1.5,1.5-2.8,2-3.1c1.3-0.7,3.8-1.2,4.7-1.4
		c1.6-0.2,4.6-1.7,4.5-5.8c-0.1-4.9-5.6-6.5-5.9-6.5c-0.9-0.2-1.8,0.3-2,1.2c-0.2,0.9,0.3,1.8,1.2,2c0,0,3.4,1,3.4,3.4
		c0.1,2-1.1,2.4-1.6,2.4l-0.1,0c-0.4,0.1-3.7,0.6-5.8,1.7c-1.3,0.7-3.4,2.8-3.7,5.6c-0.1,0.8,0,1.8,0.4,2.8c-3-0.1-5.7-0.2-7.7-0.2
		l0,0c-2.1,0-4.8,0-7.8,0.1c0.4-1.1,0.5-2,0.4-2.8c-0.3-2.8-2.4-4.9-3.7-5.6c-2.1-1.1-5.4-1.7-5.8-1.8c-0.5-0.1-1.7-0.5-1.6-2.4
		c0.1-2.5,3.4-3.4,3.4-3.4c0.9-0.2,1.4-1.2,1.2-2c-0.2-0.9-1.2-1.4-2-1.2c-0.2,0.1-5.7,1.6-5.9,6.5c-0.1,4.1,2.9,5.6,4.5,5.8
		c0.9,0.1,3.4,0.7,4.7,1.4c0.5,0.3,1.8,1.6,2,3.1c0.1,1-0.3,1.8-1.3,2.7c0,0,0,0,0,0c-6.1,0.5-13.1,1.7-19.9,4.5
		c0-1.2-0.3-2.1-0.6-2.9c-1.3-2.5-4-3.8-5.4-4c-2.4-0.3-5.7,0.3-6,0.4l-0.1,0c-0.2,0-1.7,0.3-2.3-1.7c-0.8-2.3,2-4.4,2-4.4
		c0.7-0.5,0.9-1.6,0.4-2.3c-0.5-0.7-1.6-0.9-2.3-0.4c-0.2,0.1-4.8,3.5-3.2,8.2c1.3,3.9,4.6,4.3,6.2,3.9c0.9-0.2,3.4-0.6,4.9-0.3
		c0.6,0.1,2.3,0.9,2.9,2.2c0.4,0.9,0.3,1.8-0.3,3c0,0.1,0,0.1-0.1,0.2c-0.6,0.3-1.1,0.6-1.7,0.9c-13.5,7.4-13.2,19.8-11,26
		c1.8,4.8,9.3,10.6,15.4,11.8c3.9,0.8,5.9-2,6.4-3.6c0.7-1.9,2.1-5,3-5.8c1.6-1.4,3.2-1.9,4.6-1.7c1.5,0.2,2.6,1.3,3,1.9
		c1.2,2,1.6,3.9,2,5.6c0.1,0.5,0.2,0.9,0.3,1.3c0.3,1.3,1.6,3.6,4.9,3.8c2.7,0.2,7.6,0.1,8.7,0l0,0c0.2,0,2.7,0.1,5.2,0.1
		c1.3,0,2.7,0,3.7-0.1C147.8,96.9,149.2,94.6,149.5,93.3z M105.9,91c-0.1,0.3-0.6,1.7-2.5,1.3c-5-1-11.6-5.9-13-9.7
		c-0.5-1.4-4.7-14.1,9.5-21.9c12.9-7.1,28.4-7.1,35.9-7.1l0,0c7.5,0,23.1,0,36,7.2c14.1,7.9,10,20.5,9.4,21.9c-1.4,3.8-8,8.7-13,9.7
		c-1.8,0.4-2.4-0.8-2.5-1.3l0-0.1c0-0.1-0.1-0.2-0.1-0.3c1.5-0.5,3.7-1.2,4.6-1.7c6.6-3.4,8-6.1,8.5-10.7c0.6-4.9-1.3-9.7-5.3-13.2
		c-5.3-4.7-10.3-6-17.8-7.7c-9.2-2-18.9-1.9-19.7-1.9c-0.8,0-10.5-0.2-19.7,1.8c-7.5,1.6-12.5,3-17.9,7.6c-3.9,3.4-5.9,8.2-5.3,13.1
		c0.5,4.6,1.9,7.3,8.5,10.7c0.9,0.5,3,1.2,4.5,1.7C106,90.7,106,90.8,105.9,91L105.9,91z M146.3,92.5l0,0.1c0,0-0.2,1.1-1.9,1.2
		c-2.8,0.2-8.4,0-8.5,0l0,0.6l0-0.6c-0.1,0-5.7,0.2-8.5,0c-1.5-0.1-1.8-1-1.9-1.2l0-0.1c-0.1-0.3-0.2-0.7-0.3-1.2
		c-0.4-1.7-1-4.1-2.4-6.5c-0.9-1.4-2.8-3-5.3-3.4c-1.7-0.3-4.4-0.1-7.3,2.4c-1,0.8-1.9,2.4-2.6,3.9c-1.7-0.5-3.6-1.2-4.3-1.6
		c-5.6-2.9-6.3-4.6-6.7-8.1c-0.4-3.9,1-7.5,4.2-10.3c4.8-4.1,9.4-5.4,16.4-6.9c8.9-2,18.9-1.8,19-1.8l0,0l0,0c0.1,0,10-0.2,19,1.8
		c7,1.6,11.6,2.8,16.4,6.9c3.1,2.7,4.6,6.4,4.1,10.3c-0.4,3.5-1.1,5.2-6.8,8.1c-0.7,0.4-2.7,1.1-4.4,1.6c-0.7-1.5-1.6-3-2.6-3.9
		c-2.9-2.5-5.6-2.7-7.3-2.4c-2.5,0.4-4.5,2-5.3,3.4c-1.4,2.4-2,4.8-2.4,6.5C146.5,91.7,146.4,92.1,146.3,92.5z"/>
	<path id="XMLID_152_" class="st0" d="M139.9,65.3c-1,0-1.9,0.8-1.9,1.9c0,1,0.8,1.9,1.9,1.9c0.1,0,1.8,0.1,3,1.7c1.2,1.5,1,2.9,1,3
		l0,0.1c0,0.3-0.2,1.3-0.6,2.1c-0.5,1-1.3,1.5-1.3,1.5l-0.1,0c0,0-0.9,0.7-2,0.9c-1.1,0.3-3,0.3-3.7,0.4c-0.7,0-2.6-0.1-3.7-0.4
		c-1.1-0.3-2-0.9-2-0.9l-0.1-0.1c0,0-0.8-0.6-1.3-1.5c-0.4-0.8-0.6-1.8-0.6-2.1l0-0.2c0,0-0.1-1.4,1.1-3c1.3-1.6,2.9-1.7,3-1.7
		c1,0,1.9-0.9,1.9-1.9c0-1-0.8-1.9-1.9-1.9c-1.3,0-4.1,0.7-6,3.2c-2,2.6-1.9,5.1-1.8,5.6c0,0.4,0.2,2.2,1.1,3.8
		c0.9,1.6,2.1,2.5,2.3,2.7c0.3,0.2,1.7,1.2,3.5,1.7c1.8,0.4,4.4,0.5,4.5,0.5l0,0l0,0c0.1,0,2.8-0.1,4.5-0.5c1.9-0.4,3.3-1.4,3.5-1.6
		c0.3-0.2,1.4-1.1,2.3-2.7c0.9-1.6,1.1-3.4,1.1-3.8c0-0.6,0.1-3.1-1.8-5.6C143.9,66,141.2,65.3,139.9,65.3z"/>
	<path id="XMLID_155_" class="st0" d="M161.4,94.2c0-2.7-2.2-5-5-5c-2.7,0-5,2.2-5,5c0,2.7,2.2,5,5,5S161.4,97,161.4,94.2z
		 M154.7,94.2c0-0.9,0.7-1.7,1.7-1.7s1.7,0.7,1.7,1.7c0,0.9-0.7,1.7-1.7,1.7S154.7,95.2,154.7,94.2z"/>
	<path id="XMLID_158_" class="st0" d="M159.8,116c2.7,0,5-2.2,5-5c0-2.7-2.2-5-5-5c-2.7,0-5,2.2-5,5C154.8,113.7,157,116,159.8,116z
		 M159.8,109.3c0.9,0,1.7,0.7,1.7,1.7c0,0.9-0.7,1.7-1.7,1.7s-1.7-0.7-1.7-1.7C158.1,110.1,158.9,109.3,159.8,109.3z"/>
	<path id="XMLID_161_" class="st0" d="M136.6,115.4c-2.7,0-5,2.2-5,5c0,2.7,2.2,5,5,5c2.7,0,5-2.2,5-5
		C141.6,117.7,139.3,115.4,136.6,115.4z M136.6,122.1c-0.9,0-1.7-0.7-1.7-1.7c0-0.9,0.7-1.7,1.7-1.7s1.7,0.7,1.7,1.7
		C138.3,121.3,137.5,122.1,136.6,122.1z"/>
	<path id="XMLID_164_" class="st0" d="M103.8,176c-2.3,1.5-2.9,4.6-1.4,6.9c1,1.5,2.5,2.3,4.2,2.3c0.9,0,1.9-0.3,2.7-0.8
		c1.1-0.7,1.9-1.8,2.2-3.2c0.3-1.3,0-2.6-0.7-3.7C109.2,175.1,106.1,174.5,103.8,176z M107.9,179.2c0.2,0.4,0.3,0.8,0.2,1.2
		c-0.1,0.4-0.3,0.8-0.7,1.1c-0.4,0.2-0.8,0.3-1.3,0.2c-0.4-0.1-0.8-0.3-1.1-0.7c-0.5-0.8-0.3-1.8,0.5-2.3
		C106.4,178.2,107.4,178.5,107.9,179.2z"/>
	<path id="XMLID_167_" class="st0" d="M123.4,168.9c-1.3-0.3-2.6,0-3.7,0.7c-1.1,0.7-1.9,1.8-2.2,3.2c-0.3,1.3,0,2.6,0.7,3.7
		c1,1.5,2.5,2.3,4.2,2.3c0.9,0,1.9-0.3,2.7-0.8c2.3-1.5,2.9-4.6,1.4-6.9C125.9,170,124.7,169.2,123.4,168.9z M123.3,175.2
		c-0.8,0.5-1.8,0.3-2.3-0.5c-0.2-0.4-0.3-0.8-0.2-1.2c0.1-0.4,0.3-0.8,0.7-1l0,0c0.3-0.2,0.6-0.3,0.9-0.3c0.1,0,0.2,0,0.3,0
		c0.4,0.1,0.8,0.3,1.1,0.7C124.3,173.7,124.1,174.7,123.3,175.2z"/>
	<path id="XMLID_170_" class="st0" d="M108.1,186.4c-2,0.5-5.3,1-6.5,0.6c-2-0.6-3.3-1.6-4-3c-0.6-1.4-0.4-2.9-0.1-3.5
		c1-2.1,2.4-3.5,3.5-4.7c0.3-0.3,0.6-0.7,0.9-1c0.9-0.9,2.1-3.3,0.5-6.2c-1.3-2.4-4.1-6.4-4.7-7.3l0,0c-0.1-0.2-3-5.1-4.9-7.5
		c-2-2.6-4.7-2.4-5.9-2c-0.4,0.1-0.8,0.3-1.3,0.4c-1.5,0.6-3.5,1.3-5.8,1.4c-0.7,0-2.2-0.4-3.2-1.5c-1-1.1-1.4-2.7-1.1-4.8
		c0.2-1.2,2-4.1,3.2-5.7c1.1-1.3,2.3-4.4-0.5-7.3c-4.4-4.5-13.3-7.6-18.3-6.5c-1.4,0.3-6.3,1.7-10.3,6.1c-4.1,4.4-5.9,10.4-5.4,17.3
		c0,0.6,0.1,1.3,0.2,1.9c0,0-0.1,0.1-0.1,0.1c-0.6,1.1-1.4,1.7-2.3,1.8c-1.5,0.2-3.1-0.8-3.4-1.3c-1-1.1-2.1-3.4-2.4-4.3
		c-0.6-1.5-2.7-4.1-6.7-3.1c-4.8,1.2-5.1,6.9-5.1,7.2c0,0.9,0.7,1.7,1.6,1.7c0.9,0,1.7-0.7,1.7-1.6c0,0,0.2-3.5,2.6-4.1
		c1.9-0.5,2.5,0.6,2.7,1l0,0.1c0.1,0.3,1.4,3.5,3,5.3c0.9,1,3.1,2.4,5.6,2.4c0.2,0,0.5,0,0.7,0c0.8-0.1,1.8-0.4,2.7-1
		c1.4,7.2,4.3,13.8,7.2,19.1c0,0,0,0,0,0.1c-0.2,1.3-0.7,2.1-1.6,2.5c-1.3,0.7-3.2,0.3-3.7,0c-1.3-0.7-3.1-2.5-3.7-3.2
		c-1.1-1.2-3.9-2.9-7.3-0.6c-4,2.8-2.3,8.3-2.2,8.5c0.2,0.7,0.9,1.1,1.6,1.1c0.2,0,0.3,0,0.5-0.1c0.9-0.3,1.4-1.2,1.1-2.1
		c0,0-1-3.3,1-4.8c1.6-1.1,2.6-0.4,2.9,0l0,0c0.3,0.3,2.5,2.8,4.6,3.9c1.3,0.7,4.2,1.3,6.7,0c0.7-0.4,1.5-0.9,2.2-1.9
		c1.5,2.6,3,4.8,4.1,6.6l0,0c1.1,1.7,2.6,4,4.4,6.5c-1.1,0.2-2,0.7-2.6,1.2c-2.2,1.8-2.8,4.7-2.7,6.2c0.2,2.4,1.5,5.5,1.7,5.8
		c0.2,0.5,0.5,1.7-1.1,2.7c-2.1,1.3-4.7-0.9-4.7-1c-0.7-0.6-1.7-0.5-2.3,0.1c-0.6,0.7-0.5,1.7,0.1,2.3c0.1,0.1,2.6,2.2,5.5,2.2
		c1,0,2.1-0.2,3.2-0.9c3.5-2.2,3.1-5.5,2.4-7c-0.4-0.8-1.3-3.2-1.4-4.7c0-0.6,0.3-2.4,1.5-3.4c0.7-0.6,1.7-0.7,3-0.4c0,0,0,0,0.1,0
		c3.8,4.8,8.7,10,14.7,14.2c-1,0.6-1.7,1.4-2.1,2.1c-1.4,2.4-1,5.4-0.4,6.7c1,2.2,3.4,4.6,3.6,4.8l0,0c0.1,0.1,1.2,1.2-0.2,2.9
		c-1.5,1.9-4.7,0.7-4.8,0.7c-0.9-0.3-1.8,0.1-2.1,0.9c-0.3,0.9,0.1,1.8,0.9,2.2c0.1,0,1.6,0.6,3.4,0.6c1.7,0,3.7-0.5,5.2-2.4
		c2.6-3.3,1-6.2-0.1-7.4c-0.6-0.6-2.3-2.5-3-3.9c-0.2-0.5-0.5-2.4,0.2-3.7c0.5-0.8,1.3-1.3,2.6-1.4c0.1,0,0.1,0,0.2,0
		c0.5,0.3,1.1,0.6,1.7,0.9c4.2,2.2,8,3.1,11.4,3.1c7.8,0,13.6-4.5,16.3-8.1c3.1-4.1,3.7-13.5,1.4-19.4
		C113.1,186.1,109.7,186,108.1,186.4z M80.1,157.1c2.8-0.1,5.1-0.9,6.8-1.6c0.5-0.2,0.8-0.3,1.2-0.4l0.1,0c0,0,1.1-0.4,2.1,0.9
		c1.7,2.2,4.6,7.1,4.7,7.1l0.5-0.3l-0.5,0.4c0,0,3.3,4.6,4.7,7.1c0.7,1.3,0.2,2.1,0,2.3l-0.1,0.1c-0.2,0.3-0.5,0.6-0.8,0.9
		c-1.2,1.3-2.9,3.1-4.1,5.6c-0.7,1.5-1,4,0,6.3c0.7,1.6,2.3,3.7,6.1,4.8c1.2,0.4,3,0.3,4.7,0.1c0.5,1.7,1,3.7,1,4.5
		c0.6,6.3-0.4,7.9-3.1,10.1c-3,2.5-6.9,3.3-10.9,2.1c-6.1-1.7-9.6-4.9-14.8-9.9c-6.5-6.4-11.8-14.8-11.9-14.9l0-0.1
		c-0.1-0.1-5.6-8.3-8.9-16.8c-2.6-6.7-4-11.3-3.2-17.5c0.6-4.1,2.8-7.3,6.3-9.1c3.1-1.6,5-1.9,10.5,1.2c0.7,0.4,2.4,1.7,3.7,2.8
		c-0.8,1.4-1.7,3-1.8,4.3c-0.5,3.8,0.8,6.2,2,7.5C76.1,156.3,78.5,157.1,80.1,157.1z M110.5,207.2c-0.9,1.2-9.2,11.6-23.5,4.1
		c-13-6.9-21.5-19.8-25.6-26.1l0,0c-4.1-6.3-12.6-19.3-13.7-34c-1.2-16.1,11.7-19.6,13.2-19.9c3.9-0.9,11.6,1.9,15.2,5.6
		c1.3,1.3,0.6,2.4,0.3,2.9l-0.1,0.1c0,0.1-0.1,0.1-0.2,0.2c-1.2-1-3-2.4-4-2.9c-6.5-3.7-9.5-3.4-13.6-1.3c-4.4,2.2-7.4,6.5-8.1,11.6
		c-1,7,0.6,11.9,3.4,19.1c3.3,8.8,8.8,16.9,9.2,17.5c0.4,0.7,5.6,8.9,12.3,15.5c5.5,5.4,9.4,8.8,16.2,10.8c1.5,0.4,3,0.6,4.4,0.6
		c3.5,0,6.8-1.2,9.5-3.4c3.6-3,5-5.6,4.3-13c-0.1-1.1-0.6-3.2-1.1-4.7c0.1,0,0.2-0.1,0.3-0.1l0.1,0c0.3-0.1,1.8-0.4,2.5,1.4
		C113.4,195.8,112.9,204,110.5,207.2z"/>
	<path id="XMLID_172_" class="st0" d="M68.3,168.5c-1.1,3-0.1,5.7,0.6,6.8c0.6,0.9,1.8,1.1,2.6,0.6c0.9-0.6,1.1-1.7,0.6-2.6
		c0-0.1-0.9-1.5-0.2-3.5c0.6-1.8,1.9-2.5,1.9-2.5l0.1-0.1c0,0,1-0.6,2.1-0.7c1.1-0.1,2,0.2,2,0.2l0,0l0.1,0c0,0,1.1,0.4,1.9,1.2
		c0.8,0.8,2,2.4,2.4,2.9c0.4,0.6,1.3,2.2,1.7,3.3c0.4,1.1,0.3,2.2,0.3,2.2l0,0.1c0,0-0.1,1-0.6,1.9c-0.4,0.8-1.2,1.5-1.4,1.6
		l-0.1,0.1c0,0-1.1,0.9-3,0.7c-2.1-0.1-3-1.5-3.1-1.6c-0.6-0.9-1.7-1.1-2.6-0.5c-0.9,0.6-1.1,1.8-0.5,2.6c0.7,1.1,2.8,3,6,3.3
		c0.2,0,0.5,0,0.7,0c2.8,0,4.6-1.3,5-1.6c0.3-0.2,1.7-1.3,2.6-3c0.8-1.6,1-3.1,1-3.4c0-0.3,0.1-2.1-0.6-3.9c-0.6-1.7-2-3.9-2.1-4
		l0-0.1c-0.1-0.1-1.6-2.3-2.9-3.5c-1.4-1.3-3-1.9-3.3-2.1c-0.3-0.1-1.7-0.6-3.5-0.5c-1.8,0.1-3.4,1-3.7,1.2
		C71.5,164.2,69.4,165.5,68.3,168.5z"/>
	<path id="XMLID_175_" class="st0" d="M79.8,148.4c1,1.5,2.5,2.3,4.2,2.3c0.9,0,1.9-0.3,2.7-0.8h0c2.3-1.5,2.9-4.6,1.4-6.9
		c-0.7-1.1-1.8-1.9-3.2-2.2c-1.3-0.3-2.6,0-3.7,0.7c-1.1,0.7-1.9,1.8-2.2,3.2C78.9,145.9,79.1,147.3,79.8,148.4z M82.4,145.3
		c0.1-0.4,0.3-0.8,0.7-1.1c0.3-0.2,0.6-0.3,0.9-0.3c0.1,0,0.2,0,0.3,0c0.4,0.1,0.8,0.3,1.1,0.7c0.5,0.8,0.3,1.8-0.5,2.3
		c-0.8,0.5-1.8,0.3-2.3-0.5C82.4,146.2,82.3,145.8,82.4,145.3z"/>
	<path id="XMLID_178_" class="st0" d="M95.1,138.5c0.3,0.1,0.7,0.1,1,0.1c1,0,1.9-0.3,2.7-0.8c1.1-0.7,1.9-1.8,2.2-3.2
		c0.3-1.3,0-2.6-0.7-3.7c-1.5-2.3-4.6-2.9-6.9-1.4c-1.1,0.7-1.9,1.8-2.2,3.2s0,2.6,0.7,3.7C92.7,137.5,93.8,138.3,95.1,138.5z
		 M94.5,133.3c0.1-0.4,0.3-0.8,0.7-1.1c0.3-0.2,0.6-0.3,0.9-0.3c0.5,0,1.1,0.3,1.4,0.8c0.2,0.4,0.3,0.8,0.2,1.3
		c-0.1,0.4-0.3,0.8-0.7,1.1h0c-0.4,0.2-0.8,0.3-1.2,0.2c-0.4-0.1-0.8-0.3-1.1-0.7S94.4,133.7,94.5,133.3z"/>
	<path id="XMLID_181_" class="st0" d="M121.7,148.9c0.3-1.3,0-2.6-0.7-3.7c-0.7-1.1-1.8-1.9-3.2-2.2c-1.3-0.3-2.6,0-3.7,0.7
		c-1.1,0.7-1.9,1.8-2.2,3.2c-0.3,1.3,0,2.6,0.7,3.7c0.7,1.1,1.8,1.9,3.2,2.2c0.3,0.1,0.7,0.1,1,0.1c1,0,1.9-0.3,2.7-0.8
		C120.6,151.3,121.4,150.2,121.7,148.9z M118.4,148.2c-0.1,0.4-0.3,0.8-0.7,1.1c-0.4,0.2-0.8,0.3-1.2,0.2c-0.4-0.1-0.8-0.3-1.1-0.7
		c-0.2-0.4-0.3-0.8-0.2-1.2c0.1-0.4,0.3-0.8,0.7-1.1h0c0.3-0.2,0.6-0.3,0.9-0.3c0.1,0,0.2,0,0.3,0c0.4,0.1,0.8,0.3,1.1,0.7
		C118.4,147.3,118.5,147.8,118.4,148.2z"/>
	<path id="XMLID_184_" class="st0" d="M163.1,177.9c-1.5,2.3-0.9,5.4,1.4,6.9c0.8,0.6,1.8,0.8,2.7,0.8c1.6,0,3.2-0.8,4.2-2.2
		c1.5-2.3,0.9-5.4-1.4-6.9v0C167.7,175,164.6,175.6,163.1,177.9z M168.7,181.6c-0.2,0.4-0.6,0.6-1.1,0.7c-0.4,0.1-0.9,0-1.2-0.2
		c-0.8-0.5-1-1.5-0.5-2.3c0.3-0.5,0.9-0.7,1.4-0.7c0.3,0,0.6,0.1,0.9,0.3c0.4,0.2,0.6,0.6,0.7,1.1
		C169,180.8,168.9,181.2,168.7,181.6z"/>
	<path id="XMLID_187_" class="st0" d="M154.2,170.2c-1.1-0.7-2.4-1-3.7-0.7c-1.3,0.3-2.4,1-3.2,2.1c-0.7,1.1-1,2.4-0.7,3.7
		c0.3,1.3,1,2.4,2.1,3.2c0.8,0.6,1.8,0.8,2.7,0.8c1.6,0,3.2-0.8,4.2-2.2c0.7-1.1,1-2.4,0.7-3.7C156.1,172,155.3,170.9,154.2,170.2z
		 M152.8,175.2c-0.5,0.8-1.5,1-2.3,0.5c-0.4-0.2-0.6-0.6-0.7-1.1c-0.1-0.4,0-0.9,0.2-1.2c0.2-0.4,0.6-0.6,1.1-0.7c0.1,0,0.2,0,0.3,0
		c0.3,0,0.6,0.1,0.9,0.3l0,0c0.4,0.2,0.6,0.6,0.7,1.1C153.2,174.4,153.1,174.9,152.8,175.2z"/>
	<path id="XMLID_188_" class="st0" d="M186.7,180.8c0.8,1.6,2.2,2.7,2.6,3c0.4,0.3,2.2,1.6,5,1.6c0.2,0,0.4,0,0.7,0
		c3.2-0.2,5.3-2.1,6-3.3c0.6-0.9,0.3-2.1-0.5-2.6c-0.9-0.6-2.1-0.3-2.6,0.5c0,0-1,1.4-3.1,1.5c-1.9,0.1-3-0.7-3-0.7l-0.1-0.1
		c-0.3-0.2-1-0.9-1.4-1.7c-0.5-1-0.6-1.9-0.6-1.9l0-0.1c0,0-0.1-1.1,0.3-2.2c0.4-1.1,1.4-2.7,1.7-3.3c0.4-0.6,1.5-2.1,2.4-2.9
		c0.8-0.8,1.9-1.2,1.9-1.2l0.1,0c0,0,0.9-0.3,2-0.2c0.9,0.1,1.8,0.5,2.1,0.7l0.1,0.1c0.1,0,1.3,0.7,1.9,2.5c0.7,2-0.2,3.4-0.2,3.5
		c-0.6,0.9-0.3,2.1,0.5,2.6c0.9,0.6,2.1,0.3,2.6-0.5c0.7-1.1,1.7-3.8,0.6-6.8c-1.1-3-3.2-4.3-3.7-4.6c-0.3-0.2-1.9-1-3.7-1.2
		c-1.8-0.1-3.2,0.4-3.6,0.5c-0.3,0.1-1.9,0.7-3.3,2c-1.3,1.3-2.8,3.4-2.9,3.5l0,0.1c-0.1,0.1-1.5,2.3-2.1,4
		c-0.7,1.8-0.6,3.5-0.6,3.9C185.7,177.7,185.8,179.2,186.7,180.8z"/>
	<path id="XMLID_191_" class="st0" d="M244.4,147.3c-4-1.1-6.1,1.5-6.7,3.1c-0.3,0.8-1.4,3.1-2.4,4.3c-0.4,0.4-2,1.4-3.4,1.3
		c-1-0.1-1.7-0.7-2.3-1.8c0-0.1-0.1-0.1-0.1-0.1c0.1-0.6,0.1-1.3,0.2-1.9c1.2-15.3-9.3-22-15.7-23.4c-5-1.2-13.9,2-18.3,6.4
		c-2.8,2.8-1.6,6-0.5,7.3c1.2,1.6,3,4.5,3.2,5.7c0.3,2.1-0.1,3.7-1.1,4.8c-1,1.1-2.5,1.5-3.2,1.5c-2.3-0.1-4.2-0.8-5.7-1.4
		c-0.5-0.2-0.9-0.3-1.3-0.4c-1.2-0.4-3.9-0.6-5.9,2c-1.8,2.4-4.8,7.2-4.9,7.4l0,0c-0.6,0.9-3.5,4.9-4.8,7.3
		c-1.6,2.8-0.4,5.3,0.5,6.2c0.3,0.3,0.6,0.6,0.9,1c1.1,1.2,2.5,2.7,3.5,4.7c0.3,0.6,0.5,2.1-0.1,3.5c-0.6,1.4-2,2.4-4,3
		c-1.2,0.3-4.5-0.2-6.5-0.6c-1.6-0.5-5-0.4-6.5,3.4c-2.4,5.8-1.7,15.2,1.4,19.4c0.9,1.2,4.1,5.1,9.7,7.1c2.1,0.7,4.3,1.1,6.5,1.1
		c3.8,0,7.7-1,11.5-3.1c0.6-0.3,1.1-0.6,1.7-0.9c0.1,0,0.1,0,0.2,0c1.3,0.1,2.1,0.6,2.6,1.4c0.7,1.3,0.4,3.1,0.2,3.7
		c-0.6,1.4-2.3,3.3-3,3.9c-1.2,1.1-2.7,4.1-0.2,7.4c1.5,1.9,3.5,2.4,5.2,2.4c1.8,0,3.3-0.6,3.4-0.6c0.9-0.3,1.3-1.3,1-2.1
		c-0.3-0.9-1.3-1.3-2.1-1c0,0-3.3,1.2-4.8-0.7c-1.2-1.5-0.5-2.6-0.2-2.9l0,0c0.3-0.3,2.6-2.7,3.6-4.8c0.6-1.3,1.1-4.3-0.3-6.7
		c-0.4-0.7-1-1.5-2.1-2.1c6-4.2,10.9-9.4,14.7-14.2c0,0,0,0,0.1,0c1.2-0.3,2.2-0.2,3,0.4c1.1,1,1.5,2.8,1.5,3.4
		c-0.1,1.5-1.1,3.9-1.4,4.7c-0.7,1.5-1.1,4.8,2.4,7c1.1,0.7,2.1,0.9,3.2,0.9c3,0,5.4-2.1,5.5-2.2c0.7-0.6,0.7-1.6,0.1-2.3
		c-0.6-0.7-1.7-0.8-2.3-0.2c0,0-2.7,2.3-4.8,1c-1.7-1-1.4-2.2-1.2-2.7l0-0.1c0.2-0.3,1.5-3.4,1.7-5.8c0.1-1.4-0.5-4.4-2.7-6.2
		c-0.6-0.5-1.5-1-2.6-1.2c1.8-2.5,3.3-4.7,4.4-6.5l0,0c1.1-1.7,2.6-3.9,4.1-6.5c0.7,0.9,1.4,1.5,2.1,1.9c2.5,1.3,5.5,0.7,6.7,0
		c2.1-1.1,4.4-3.6,4.7-3.9c0.3-0.4,1.3-1.1,2.9,0c2,1.4,1,4.7,1,4.8c-0.3,0.9,0.2,1.8,1.1,2.1c0.2,0.1,0.3,0.1,0.5,0.1
		c0.7,0,1.4-0.4,1.6-1.1c0.1-0.2,1.8-5.7-2.2-8.5c-3.4-2.4-6.3-0.7-7.3,0.5c-0.6,0.7-2.4,2.4-3.7,3.2c-0.5,0.3-2.3,0.7-3.7,0
		c-0.9-0.4-1.4-1.3-1.6-2.5c0,0,0,0,0-0.1c2.9-5.4,5.7-11.9,7.2-19.1c1,0.7,1.9,1,2.7,1.1c0.2,0,0.5,0,0.7,0c2.5,0,4.7-1.4,5.6-2.4
		c1.6-1.8,2.9-4.9,3-5.3c0.2-0.5,0.8-1.5,2.7-1c2.4,0.6,2.6,4,2.6,4.1c0,0.9,0.8,1.6,1.7,1.6c0.9,0,1.6-0.8,1.6-1.7
		C249.4,154.3,249.2,148.6,244.4,147.3z M173.2,190.8c3.7-1.1,5.4-3.2,6.1-4.8c1-2.3,0.8-4.8,0.1-6.3c-1.2-2.5-2.9-4.3-4.1-5.6
		c-0.3-0.3-0.6-0.7-0.8-0.9l-0.1-0.1c0,0-0.8-0.8,0-2.3c1.3-2.5,4.6-7.1,4.7-7.1l-0.5-0.4l0.5,0.3c0,0,2.9-4.9,4.7-7.1
		c0.9-1.2,1.9-1,2.1-0.9l0.1,0c0.3,0.1,0.7,0.2,1.2,0.4c1.7,0.6,4,1.5,6.8,1.6c1.7,0.1,4.1-0.7,5.8-2.6c1.2-1.3,2.5-3.6,2-7.5
		c-0.2-1.3-1-2.9-1.8-4.3c1.4-1.1,3.1-2.4,3.8-2.8c5.5-3.1,7.4-2.8,10.5-1.2c3.5,1.8,5.7,5,6.3,9.1c0.8,6.2-0.7,10.8-3.2,17.5
		c-3.3,8.6-8.9,16.7-8.9,16.8l0,0.1c-0.1,0.1-5.3,8.5-11.9,14.9c-5.1,5-8.7,8.2-14.8,9.9c-4,1.1-7.9,0.4-10.9-2.2
		c-2.7-2.3-3.7-3.8-3.1-10.1c0.1-0.8,0.6-2.8,1-4.5C170.2,191.1,172,191.2,173.2,190.8z M226.3,151.8c-1.1,14.7-9.7,27.7-13.8,34
		l0,0c-4.1,6.3-12.7,19.2-25.7,26.1c-14.3,7.5-22.6-2.9-23.5-4.1c-2.4-3.2-2.9-11.4-1-16.2c0.5-1.2,1.3-1.5,1.9-1.5
		c0.2,0,0.4,0,0.6,0.1l0.1,0c0.1,0,0.2,0,0.3,0.1c-0.4,1.5-1,3.7-1.1,4.7c-0.8,7.4,0.7,10,4.3,13c2.7,2.3,6,3.4,9.5,3.4
		c1.5,0,2.9-0.2,4.4-0.6c6.8-1.9,10.7-5.3,16.2-10.7c6.7-6.5,12-14.8,12.4-15.4c0.4-0.6,5.9-8.7,9.3-17.5c2.8-7.2,4.4-12.1,3.4-19.1
		c-0.7-5.2-3.6-9.4-8.1-11.6c-4.1-2.1-7.1-2.4-13.6,1.2c-0.9,0.5-2.7,1.9-4,2.9c-0.1-0.1-0.1-0.2-0.2-0.2l0-0.1
		c-0.3-0.4-1-1.6,0.3-2.9c3.6-3.7,11.3-6.4,15.2-5.5C214.6,132.2,227.5,135.7,226.3,151.8z"/>
	<path id="XMLID_195_" class="st0" d="M187.2,150.4L187.2,150.4c0.8,0.6,1.8,0.8,2.7,0.8c1.6,0,3.2-0.8,4.2-2.2
		c0.7-1.1,1-2.4,0.7-3.7c-0.3-1.3-1-2.4-2.1-3.2c-2.3-1.5-5.4-0.9-6.9,1.4C184.2,145.8,184.9,148.9,187.2,150.4z M188.5,145.3
		c0.2-0.4,0.6-0.6,1.1-0.7c0.4-0.1,0.9,0,1.2,0.2c0.4,0.2,0.6,0.6,0.7,1.1c0.1,0.4,0,0.9-0.2,1.2c-0.5,0.8-1.5,1-2.3,0.5
		C188.2,147.1,188,146.1,188.5,145.3z"/>
	<path id="XMLID_198_" class="st0" d="M180.5,130c-1.1-0.7-2.4-1-3.7-0.7c-1.3,0.3-2.4,1-3.2,2.1c-0.7,1.1-1,2.4-0.7,3.7
		c0.3,1.3,1,2.4,2.1,3.2c0.8,0.5,1.8,0.8,2.7,0.8c0.3,0,0.7,0,1-0.1c1.3-0.3,2.4-1,3.2-2.1c0.7-1.1,1-2.4,0.7-3.7
		C182.4,131.9,181.6,130.8,180.5,130z M179.2,135.1c-0.2,0.4-0.6,0.6-1.1,0.7c-0.4,0.1-0.9,0-1.2-0.2l0,0c-0.4-0.2-0.6-0.6-0.7-1.1
		c-0.1-0.4,0-0.9,0.2-1.2c0.2-0.4,0.6-0.6,1.1-0.7c0.1,0,0.2,0,0.3,0c0.3,0,0.6,0.1,0.9,0.3c0.4,0.2,0.6,0.6,0.7,1.1
		C179.5,134.3,179.4,134.8,179.2,135.1z"/>
	<path id="XMLID_201_" class="st0" d="M161.3,151.1c0.7-1.1,1-2.4,0.7-3.7c-0.3-1.3-1-2.4-2.1-3.2c-2.3-1.5-5.4-0.9-6.9,1.4
		c-1.5,2.3-0.9,5.4,1.4,6.9c0.8,0.6,1.8,0.8,2.7,0.8C158.8,153.4,160.4,152.6,161.3,151.1z M158.5,149.3c-0.2,0.4-0.6,0.6-1.1,0.7
		c-0.4,0.1-0.9,0-1.2-0.2c-0.8-0.5-1-1.5-0.5-2.3c0.2-0.4,0.6-0.6,1.1-0.7c0.1,0,0.2,0,0.3,0c0.3,0,0.6,0.1,0.9,0.3
		c0.4,0.2,0.6,0.6,0.7,1.1C158.9,148.5,158.8,148.9,158.5,149.3z"/>
</g>
</svg>
