<svg xmlns="http://www.w3.org/2000/svg" viewBox="0 0 128 128"><defs><style>.cls-1{fill:#e74d55;}.cls-2{fill:#fff;}.cls-3{fill:none;stroke:#10415c;stroke-miterlimit:10;stroke-width:2px;}.cls-4{fill:#10415c;}</style></defs><title>Asset 6</title><g id="Layer_2" data-name="Layer 2"><g id="Wet_Lab" data-name="Wet Lab"><circle class="cls-1" cx="64" cy="64" r="64"/><polygon class="cls-2" points="95.39 49.86 85.57 49.86 85.57 43.11 95.39 43.11 93.35 46.4 95.39 49.86"/><path class="cls-2" d="M41.16,34H75.68a4.66,4.66,0,0,1,4.66,4.66V89.6a4.66,4.66,0,0,1-4.66,4.66H41.16a2.89,2.89,0,0,1-2.89-2.89V36.9A2.89,2.89,0,0,1,41.16,34Z"/><rect class="cls-3" x="37.46" y="33" width="48.91" height="62" rx="5" ry="5"/><path class="cls-2" d="M34.16,54.39a.54.54,0,1,1,0-1.08h7a.54.54,0,0,1,.54.54.55.55,0,0,1-.54.54Z"/><path class="cls-4" d="M41.18,52.3h-7a1.55,1.55,0,0,0-1.54,1.54h0a1.55,1.55,0,0,0,1.54,1.54h7a1.55,1.55,0,0,0,1.54-1.54h0a1.55,1.55,0,0,0-1.54-1.54Z"/><path class="cls-2" d="M34.16,44.39a.54.54,0,1,1,0-1.08h7a.54.54,0,0,1,.54.54.55.55,0,0,1-.54.54Z"/><path class="cls-4" d="M41.18,42.3h-7a1.55,1.55,0,0,0-1.54,1.54h0a1.55,1.55,0,0,0,1.54,1.54h7a1.55,1.55,0,0,0,1.54-1.54h0a1.55,1.55,0,0,0-1.54-1.54Z"/><path class="cls-2" d="M34.16,64.39a.54.54,0,1,1,0-1.08h7a.54.54,0,0,1,.54.54.55.55,0,0,1-.54.54Z"/><path class="cls-4" d="M41.18,62.3h-7a1.55,1.55,0,0,0-1.54,1.54h0a1.55,1.55,0,0,0,1.54,1.54h7a1.55,1.55,0,0,0,1.54-1.54h0a1.55,1.55,0,0,0-1.54-1.54Z"/><path class="cls-2" d="M34.16,74.39a.54.54,0,1,1,0-1.08h7a.54.54,0,0,1,.54.54.55.55,0,0,1-.54.54Z"/><path class="cls-4" d="M41.18,72.3h-7a1.55,1.55,0,0,0-1.54,1.54h0a1.55,1.55,0,0,0,1.54,1.54h7a1.55,1.55,0,0,0,1.54-1.54h0a1.55,1.55,0,0,0-1.54-1.54Z"/><path class="cls-2" d="M34.16,84.39a.54.54,0,1,1,0-1.08h7a.54.54,0,0,1,.54.54.55.55,0,0,1-.54.54Z"/><path class="cls-4" d="M41.18,82.3h-7a1.55,1.55,0,0,0-1.54,1.54h0a1.55,1.55,0,0,0,1.54,1.54h7a1.55,1.55,0,0,0,1.54-1.54h0a1.55,1.55,0,0,0-1.54-1.54Z"/><rect class="cls-4" x="50.96" y="60.43" width="18.01" height="1.63" rx="0.81" ry="0.81" transform="translate(119.93 122.48) rotate(-180)"/><rect class="cls-4" x="50.96" y="55.43" width="18.01" height="1.63" rx="0.81" ry="0.81" transform="translate(119.93 112.48) rotate(-180)"/><rect class="cls-4" x="50.96" y="50.43" width="18.01" height="1.63" rx="0.81" ry="0.81" transform="translate(119.93 102.48) rotate(180)"/><rect class="cls-4" x="50.96" y="45.43" width="18.01" height="1.63" rx="0.81" ry="0.81" transform="translate(119.93 92.48) rotate(180)"/><rect class="cls-4" x="50.96" y="65.43" width="18.01" height="1.63" rx="0.81" ry="0.81" transform="translate(119.93 132.48) rotate(180)"/><rect class="cls-4" x="50.96" y="70.43" width="18.01" height="1.63" rx="0.81" ry="0.81" transform="translate(119.93 142.48) rotate(-180)"/><rect class="cls-4" x="50.96" y="75.43" width="18.01" height="1.63" rx="0.81" ry="0.81" transform="translate(119.93 152.48) rotate(180)"/><rect class="cls-4" x="50.96" y="80.43" width="11.49" height="1.63" rx="0.81" ry="0.81" transform="translate(113.41 162.48) rotate(180)"/></g></g></svg>