<svg xmlns="http://www.w3.org/2000/svg" viewBox="0 0 128 128"><defs><style>.cls-1{fill:#e74d55;}.cls-2{fill:#fff;}.cls-3{fill:#0f415c;stroke:#10415c;stroke-miterlimit:10;stroke-width:2px;}.cls-4{fill:#10415c;}</style></defs><title>Asset 7</title><g id="Layer_2" data-name="Layer 2"><g id="Wet_Lab" data-name="Wet Lab"><circle class="cls-1" cx="64" cy="64" r="64"/><rect class="cls-2" x="84.92" y="64.1" width="5.12" height="24.62"/><path class="cls-3" d="M99.11,93.92l-3.4-2V93h-64V35.52h1.06l-2-3.4-2,3.4h1.06v58.4a.9.9,0,0,0,.9.9H95.71v1.06Z"/><path class="cls-4" d="M91.57,65.88V86.71h-4.7V65.88h4.7m2-2h-8.7V88.71h8.7V63.88Z"/><rect class="cls-2" x="69.4" y="59.43" width="5.12" height="29.28"/><rect class="cls-2" x="53.9" y="50.6" width="5.12" height="38.12"/><rect class="cls-2" x="38.53" y="44.85" width="5.12" height="43.87"/><path class="cls-4" d="M76.1,61.43V86.71H71.4V61.43h4.7m2-2H69.4V88.71h8.7V59.43Z"/><path class="cls-4" d="M60.63,52.46V86.71h-4.7V52.46h4.7m2-2h-8.7V88.71h8.7V50.46Z"/><path class="cls-4" d="M45.16,46.64V86.71h-4.7V46.64h4.7m2-2h-8.7V88.71h8.7V44.64Z"/></g></g></svg>