<svg xmlns="http://www.w3.org/2000/svg" viewBox="0 0 128 128"><defs><style>.cls-1{fill:#e74d55;}.cls-2,.cls-4{fill:#fff;}.cls-3{fill:#10415c;}.cls-4{stroke:#10415c;stroke-miterlimit:10;}.cls-5{fill:#e64d55;}.cls-6{fill:none;stroke:#fff;stroke-linecap:round;stroke-linejoin:round;stroke-width:2px;}</style></defs><title>Asset 2</title><g id="Layer_2" data-name="Layer 2"><g id="Wet_Lab" data-name="Wet Lab"><circle class="cls-1" cx="64" cy="64" r="64"/><polygon class="cls-2" points="58.22 64.34 25.4 52.19 62.74 42.03 96 50.76 58.22 64.34"/><polygon class="cls-3" points="62.34 42.12 25.41 52.19 25.79 53.53 62.72 43.46 62.34 42.12"/><path class="cls-3" d="M56.39,38V43.8c0,1.46,4.22,2.64,9.43,2.64s9.43-1.18,9.43-2.64V38Z"/><path class="cls-3" d="M65.82,47c-5,0-10-1.1-10-3.2V38a.56.56,0,0,1,.56-.56H75.25a.56.56,0,0,1,.56.56V43.8C75.81,45.91,70.78,47,65.82,47ZM57,38.56V43.8c0,.71,3.13,2.08,8.87,2.08s8.87-1.37,8.87-2.08V38.56Z"/><ellipse class="cls-4" cx="65.82" cy="38" rx="9.43" ry="2.64"/><path class="cls-3" d="M65.82,41.2c-5,0-10-1.1-10-3.2s5-3.2,10-3.2,10,1.1,10,3.2S70.78,41.2,65.82,41.2Zm0-5.28C60.08,35.92,57,37.29,57,38s3.13,2.08,8.87,2.08S74.68,38.7,74.68,38,71.55,35.92,65.82,35.92Z"/><path class="cls-3" d="M35.51,44V49.8c0,1.46,4.22,2.64,9.43,2.64s9.43-1.18,9.43-2.64V44Z"/><path class="cls-3" d="M44.94,53c-5,0-10-1.1-10-3.2V44a.56.56,0,0,1,.56-.56H54.37a.56.56,0,0,1,.56.56V49.8C54.93,51.91,49.91,53,44.94,53Zm-8.87-8.45V49.8c0,.71,3.13,2.08,8.87,2.08s8.87-1.37,8.87-2.08V44.56Z"/><ellipse class="cls-4" cx="44.94" cy="44" rx="9.43" ry="2.64"/><path class="cls-3" d="M44.94,47.2c-5,0-10-1.1-10-3.2s5-3.2,10-3.2,10,1.1,10,3.2S49.91,47.2,44.94,47.2Zm0-5.28c-5.74,0-8.87,1.37-8.87,2.08s3.13,2.08,8.87,2.08S53.81,44.7,53.81,44,50.68,41.92,44.94,41.92Z"/><path class="cls-1" d="M49.64,49.62v5.81c0,1.46,4.22,2.64,9.43,2.64s9.43-1.18,9.43-2.64V49.62Z"/><path class="cls-3" d="M59.07,58.63c-5,0-10-1.1-10-3.2V49.62a.56.56,0,0,1,.56-.56H68.5a.56.56,0,0,1,.56.56v5.81C69.06,57.53,64,58.63,59.07,58.63ZM50.2,50.19v5.24c0,.71,3.13,2.08,8.87,2.08s8.87-1.37,8.87-2.08V50.19Z"/><ellipse class="cls-4" cx="59.07" cy="49.62" rx="9.43" ry="2.64"/><path class="cls-3" d="M59.07,52.83c-5,0-10-1.1-10-3.2s5-3.2,10-3.2,10,1.1,10,3.2S64,52.83,59.07,52.83Zm0-5.28c-5.74,0-8.87,1.37-8.87,2.08s3.13,2.08,8.87,2.08,8.87-1.37,8.87-2.08S64.8,47.55,59.07,47.55Z"/><path class="cls-1" d="M70.39,42.87v5.81c0,1.46,4.22,2.64,9.43,2.64s9.43-1.18,9.43-2.64V42.87Z"/><path class="cls-3" d="M79.82,51.88c-5,0-10-1.1-10-3.2V42.87a.56.56,0,0,1,.56-.56H89.25a.56.56,0,0,1,.56.56v5.81C89.81,50.78,84.78,51.88,79.82,51.88ZM71,43.44v5.24c0,.71,3.13,2.08,8.87,2.08s8.87-1.37,8.87-2.08V43.44Z"/><ellipse class="cls-4" cx="79.82" cy="42.87" rx="9.43" ry="2.64"/><path class="cls-3" d="M79.82,46.08c-5,0-10-1.1-10-3.2s5-3.2,10-3.2,10,1.1,10,3.2S84.78,46.08,79.82,46.08Zm0-5.28c-5.74,0-8.87,1.37-8.87,2.08S74.08,45,79.82,45s8.87-1.37,8.87-2.08S85.55,40.8,79.82,40.8Z"/><polygon class="cls-3" points="58.22 89.23 58.22 64.34 96 50.76 96 74 58.22 89.23"/><polygon class="cls-5" points="26.4 74.87 26.4 53.63 57.22 65.03 57.22 87.73 26.4 74.87"/><path class="cls-3" d="M27.4,55.06,56.22,65.73v20.5l-28.82-12V55.06m-2-2.87V75.54L58.22,89.23V64.34L25.4,52.19Z"/><line class="cls-6" x1="63.89" y1="82.41" x2="81.22" y2="75.47"/><line class="cls-6" x1="85.01" y1="73.93" x2="86.28" y2="73.49"/></g></g></svg>